<?xml version="1.0" encoding="UTF-8" standalone="no"?>
<!DOCTYPE svg PUBLIC "-//W3C//DTD SVG 1.1//EN"
 "http://www.w3.org/Graphics/SVG/1.1/DTD/svg11.dtd">
<!-- Generated by graphviz version 12.1.2 (20240928.0832)
 -->
<!-- Title: env Pages: 1 -->
<svg width="488pt" height="725pt"
 viewBox="0.00 0.00 487.73 725.20" xmlns="http://www.w3.org/2000/svg" xmlns:xlink="http://www.w3.org/1999/xlink">
<g id="graph0" class="graph" transform="scale(1 1) rotate(0) translate(4 721.2)">
<title>env</title>
<polygon fill="white" stroke="none" points="-4,4 -4,-721.2 483.73,-721.2 483.73,4 -4,4"/>
<!-- env -->
<g id="node1" class="node">
<title>env</title>
<polygon fill="#efefef" stroke="none" points="167.2,-231 167.2,-266.6 305.7,-266.6 305.7,-231 167.2,-231"/>
<polygon fill="none" stroke="black" points="167.2,-231 167.2,-266.6 305.7,-266.6 305.7,-231 167.2,-231"/>
<text text-anchor="start" x="188.83" y="-244.4" font-family="Arial Bold" font-size="18.00">env</text>
<text text-anchor="start" x="214.82" y="-244.4" font-family="Arial" font-size="14.00">    </text>
<text text-anchor="start" x="245.94" y="-244.4" font-family="Arial" font-size="14.00" fill="#666666">[table]</text>
<polygon fill="none" stroke="black" points="167.2,-200.2 167.2,-231 305.7,-231 305.7,-200.2 167.2,-200.2"/>
<text text-anchor="start" x="174.2" y="-212.4" font-family="Arial" font-size="14.00">env_id </text>
<text text-anchor="start" x="219.34" y="-212.4" font-family="Arial" font-size="14.00" fill="#666666">[INTEGER]</text>
<polygon fill="none" stroke="black" points="167.2,-169.4 167.2,-200.2 305.7,-200.2 305.7,-169.4 167.2,-169.4"/>
<text text-anchor="start" x="174.2" y="-181.6" font-family="Arial" font-size="14.00">name </text>
<text text-anchor="start" x="213.11" y="-181.6" font-family="Arial" font-size="14.00" fill="#666666">[TEXT]</text>
<polygon fill="none" stroke="black" points="167.2,-138.6 167.2,-169.4 305.7,-169.4 305.7,-138.6 167.2,-138.6"/>
<text text-anchor="start" x="174.2" y="-150.8" font-family="Arial" font-size="14.00">comment </text>
<text text-anchor="start" x="235.66" y="-150.8" font-family="Arial" font-size="14.00" fill="#666666">[TEXT]</text>
<polygon fill="none" stroke="black" points="167.2,-107.8 167.2,-138.6 305.7,-138.6 305.7,-107.8 167.2,-107.8"/>
<text text-anchor="start" x="174.2" y="-120" font-family="Arial" font-size="14.00">create_time </text>
<text text-anchor="start" x="251.23" y="-120" font-family="Arial" font-size="14.00" fill="#666666">[TEXT]</text>
<polygon fill="none" stroke="black" points="167.2,-77 167.2,-107.8 305.7,-107.8 305.7,-77 167.2,-77"/>
<text text-anchor="start" x="174.2" y="-89.2" font-family="Arial" font-size="14.00">update_time </text>
<text text-anchor="start" x="255.14" y="-89.2" font-family="Arial" font-size="14.00" fill="#666666">[TEXT]</text>
<polygon fill="none" stroke="black" points="167.2,-46.2 167.2,-77 305.7,-77 305.7,-46.2 167.2,-46.2"/>
<text text-anchor="start" x="174.2" y="-58.4" font-family="Arial" font-size="14.00">enabled </text>
<text text-anchor="start" x="227.92" y="-58.4" font-family="Arial" font-size="14.00" fill="#666666">[INTEGER]</text>
<polygon fill="none" stroke="black" stroke-width="3" points="165.7,-44.7 165.7,-268.1 307.2,-268.1 307.2,-44.7 165.7,-44.7"/>
</g>
<!-- var -->
<g id="node2" class="node">
<title>var</title>
<polygon fill="#efefef" stroke="none" points="43.2,-638.4 43.2,-674 181.7,-674 181.7,-638.4 43.2,-638.4"/>
<polygon fill="none" stroke="black" points="43.2,-638.4 43.2,-674 181.7,-674 181.7,-638.4 43.2,-638.4"/>
<text text-anchor="start" x="66.33" y="-651.8" font-family="Arial Bold" font-size="18.00">var</text>
<text text-anchor="start" x="89.32" y="-651.8" font-family="Arial" font-size="14.00">    </text>
<text text-anchor="start" x="120.43" y="-651.8" font-family="Arial" font-size="14.00" fill="#666666">[table]</text>
<polygon fill="none" stroke="black" points="43.2,-607.6 43.2,-638.4 181.7,-638.4 181.7,-607.6 43.2,-607.6"/>
<text text-anchor="start" x="50.2" y="-619.8" font-family="Arial" font-size="14.00">var_id </text>
<text text-anchor="start" x="92.22" y="-619.8" font-family="Arial" font-size="14.00" fill="#666666">[INTEGER]</text>
<polygon fill="none" stroke="black" points="43.2,-576.8 43.2,-607.6 181.7,-607.6 181.7,-576.8 43.2,-576.8"/>
<text text-anchor="start" x="50.2" y="-589" font-family="Arial" font-size="14.00">env_id </text>
<text text-anchor="start" x="95.34" y="-589" font-family="Arial" font-size="14.00" fill="#666666">[INTEGER]</text>
<polygon fill="none" stroke="black" points="43.2,-546 43.2,-576.8 181.7,-576.8 181.7,-546 43.2,-546"/>
<text text-anchor="start" x="50.2" y="-558.2" font-family="Arial" font-size="14.00">name </text>
<text text-anchor="start" x="89.11" y="-558.2" font-family="Arial" font-size="14.00" fill="#666666">[TEXT]</text>
<polygon fill="none" stroke="black" points="43.2,-515.2 43.2,-546 181.7,-546 181.7,-515.2 43.2,-515.2"/>
<text text-anchor="start" x="50.2" y="-527.4" font-family="Arial" font-size="14.00">comment </text>
<text text-anchor="start" x="111.66" y="-527.4" font-family="Arial" font-size="14.00" fill="#666666">[TEXT]</text>
<polygon fill="none" stroke="black" points="43.2,-484.4 43.2,-515.2 181.7,-515.2 181.7,-484.4 43.2,-484.4"/>
<text text-anchor="start" x="50.2" y="-496.6" font-family="Arial" font-size="14.00">create_time </text>
<text text-anchor="start" x="127.23" y="-496.6" font-family="Arial" font-size="14.00" fill="#666666">[TEXT]</text>
<polygon fill="none" stroke="black" points="43.2,-453.6 43.2,-484.4 181.7,-484.4 181.7,-453.6 43.2,-453.6"/>
<text text-anchor="start" x="50.2" y="-465.8" font-family="Arial" font-size="14.00">update_time </text>
<text text-anchor="start" x="131.14" y="-465.8" font-family="Arial" font-size="14.00" fill="#666666">[TEXT]</text>
<polygon fill="none" stroke="black" points="43.2,-422.8 43.2,-453.6 181.7,-453.6 181.7,-422.8 43.2,-422.8"/>
<text text-anchor="start" x="50.2" y="-435" font-family="Arial" font-size="14.00">value </text>
<text text-anchor="start" x="87.56" y="-435" font-family="Arial" font-size="14.00" fill="#666666">[TEXT]</text>
<polygon fill="none" stroke="black" points="43.2,-392 43.2,-422.8 181.7,-422.8 181.7,-392 43.2,-392"/>
<text text-anchor="start" x="50.2" y="-404.2" font-family="Arial" font-size="14.00">enabled </text>
<text text-anchor="start" x="103.92" y="-404.2" font-family="Arial" font-size="14.00" fill="#666666">[INTEGER]</text>
</g>
<!-- var&#45;&gt;env -->
<g id="edge1" class="edge">
<title>var:env_id&#45;&gt;env:env_id</title>
<path fill="none" stroke="black" d="M192.69,-589.49C230.68,-566.11 191.37,-398.15 181.7,-348.8 178.39,-331.87 170.57,-329.72 167.2,-312.8 158.76,-270.43 123,-215.6 166.2,-215.6"/>
<polygon fill="black" stroke="black" points="192.68,-589.5 181.85,-587.77 187.53,-590.89 183.35,-592.02 183.35,-592.02 183.35,-592.02 187.53,-590.89 184.2,-596.46 192.68,-589.5"/>
</g>
<!-- var_ref -->
<g id="node3" class="node">
<title>var_ref</title>
<polygon fill="#efefef" stroke="none" points="286.38,-638.4 286.38,-674 436.53,-674 436.53,-638.4 286.38,-638.4"/>
<polygon fill="none" stroke="black" points="286.38,-638.4 286.38,-674 436.53,-674 436.53,-638.4 286.38,-638.4"/>
<text text-anchor="start" x="300.84" y="-651.8" font-family="Arial Bold" font-size="18.00">var_ref</text>
<text text-anchor="start" x="352.8" y="-651.8" font-family="Arial" font-size="14.00">    </text>
<text text-anchor="start" x="383.92" y="-651.8" font-family="Arial" font-size="14.00" fill="#666666">[table]</text>
<polygon fill="none" stroke="black" points="286.38,-607.6 286.38,-638.4 436.53,-638.4 436.53,-607.6 286.38,-607.6"/>
<text text-anchor="start" x="293.38" y="-619.8" font-family="Arial" font-size="14.00">var_ref_id </text>
<text text-anchor="start" x="359.52" y="-619.8" font-family="Arial" font-size="14.00" fill="#666666">[INTEGER]</text>
<polygon fill="none" stroke="black" points="286.38,-576.8 286.38,-607.6 436.53,-607.6 436.53,-576.8 286.38,-576.8"/>
<text text-anchor="start" x="293.38" y="-589" font-family="Arial" font-size="14.00">env_id </text>
<text text-anchor="start" x="338.52" y="-589" font-family="Arial" font-size="14.00" fill="#666666">[INTEGER]</text>
<polygon fill="none" stroke="black" points="286.38,-546 286.38,-576.8 436.53,-576.8 436.53,-546 286.38,-546"/>
<text text-anchor="start" x="293.38" y="-558.2" font-family="Arial" font-size="14.00">name </text>
<text text-anchor="start" x="332.29" y="-558.2" font-family="Arial" font-size="14.00" fill="#666666">[TEXT]</text>
<polygon fill="none" stroke="black" points="286.38,-515.2 286.38,-546 436.53,-546 436.53,-515.2 286.38,-515.2"/>
<text text-anchor="start" x="293.38" y="-527.4" font-family="Arial" font-size="14.00">comment </text>
<text text-anchor="start" x="354.84" y="-527.4" font-family="Arial" font-size="14.00" fill="#666666">[TEXT]</text>
<polygon fill="none" stroke="black" points="286.38,-484.4 286.38,-515.2 436.53,-515.2 436.53,-484.4 286.38,-484.4"/>
<text text-anchor="start" x="293.38" y="-496.6" font-family="Arial" font-size="14.00">create_time </text>
<text text-anchor="start" x="370.41" y="-496.6" font-family="Arial" font-size="14.00" fill="#666666">[TEXT]</text>
<polygon fill="none" stroke="black" points="286.38,-453.6 286.38,-484.4 436.53,-484.4 436.53,-453.6 286.38,-453.6"/>
<text text-anchor="start" x="293.38" y="-465.8" font-family="Arial" font-size="14.00">update_time </text>
<text text-anchor="start" x="374.32" y="-465.8" font-family="Arial" font-size="14.00" fill="#666666">[TEXT]</text>
<polygon fill="none" stroke="black" points="286.38,-422.8 286.38,-453.6 436.53,-453.6 436.53,-422.8 286.38,-422.8"/>
<text text-anchor="start" x="293.38" y="-435" font-family="Arial" font-size="14.00">var_id </text>
<text text-anchor="start" x="335.4" y="-435" font-family="Arial" font-size="14.00" fill="#666666">[INTEGER]</text>
<polygon fill="none" stroke="black" points="286.38,-392 286.38,-422.8 436.53,-422.8 436.53,-392 286.38,-392"/>
<text text-anchor="start" x="293.38" y="-404.2" font-family="Arial" font-size="14.00">enabled </text>
<text text-anchor="start" x="347.09" y="-404.2" font-family="Arial" font-size="14.00" fill="#666666">[INTEGER]</text>
</g>
<!-- var_ref&#45;&gt;env -->
<g id="edge2" class="edge">
<title>var_ref:env_id&#45;&gt;env:env_id</title>
<path fill="none" stroke="black" d="M275.35,-589.48C237.02,-566.03 274.01,-397.54 286.38,-348.8 290.84,-331.2 301.18,-330.39 305.7,-312.8 316.45,-270.96 349.91,-215.6 306.7,-215.6"/>
<polygon fill="black" stroke="black" points="275.4,-589.5 283.88,-596.46 280.55,-590.89 284.73,-592.03 284.73,-592.03 284.73,-592.03 280.55,-590.89 286.23,-587.77 275.4,-589.5"/>
</g>
</g>
</svg>
