<?xml version="1.0" encoding="UTF-8" standalone="no"?>
<!DOCTYPE svg PUBLIC "-//W3C//DTD SVG 1.1//EN"
 "http://www.w3.org/Graphics/SVG/1.1/DTD/svg11.dtd">
<!-- Generated by graphviz version 12.1.2 (20240928.0832)
 -->
<!-- Title: env Pages: 1 -->
<svg width="488pt" height="756pt"
 viewBox="0.00 0.00 487.73 756.00" xmlns="http://www.w3.org/2000/svg" xmlns:xlink="http://www.w3.org/1999/xlink">
<g id="graph0" class="graph" transform="scale(1 1) rotate(0) translate(4 752)">
<title>env</title>
<polygon fill="white" stroke="none" points="-4,4 -4,-752 483.73,-752 483.73,4 -4,4"/>
<!-- env -->
<g id="node1" class="node">
<title>env</title>
<polygon fill="#efefef" stroke="none" points="167.2,-231 167.2,-266.6 305.7,-266.6 305.7,-231 167.2,-231"/>
<polygon fill="none" stroke="black" points="167.2,-231 167.2,-266.6 305.7,-266.6 305.7,-231 167.2,-231"/>
<text text-anchor="start" x="188.83" y="-244.4" font-family="Arial Bold" font-size="18.00">env</text>
<text text-anchor="start" x="214.82" y="-244.4" font-family="Arial" font-size="14.00">    </text>
<text text-anchor="start" x="245.94" y="-244.4" font-family="Arial" font-size="14.00" fill="#666666">[table]</text>
<polygon fill="none" stroke="black" points="167.2,-200.2 167.2,-231 305.7,-231 305.7,-200.2 167.2,-200.2"/>
<text text-anchor="start" x="174.2" y="-212.4" font-family="Arial" font-size="14.00">env_id </text>
<text text-anchor="start" x="219.34" y="-212.4" font-family="Arial" font-size="14.00" fill="#666666">[INTEGER]</text>
<polygon fill="none" stroke="black" points="167.2,-169.4 167.2,-200.2 305.7,-200.2 305.7,-169.4 167.2,-169.4"/>
<text text-anchor="start" x="174.2" y="-181.6" font-family="Arial" font-size="14.00">name </text>
<text text-anchor="start" x="213.11" y="-181.6" font-family="Arial" font-size="14.00" fill="#666666">[TEXT]</text>
<polygon fill="none" stroke="black" points="167.2,-138.6 167.2,-169.4 305.7,-169.4 305.7,-138.6 167.2,-138.6"/>
<text text-anchor="start" x="174.2" y="-150.8" font-family="Arial" font-size="14.00">comment </text>
<text text-anchor="start" x="235.66" y="-150.8" font-family="Arial" font-size="14.00" fill="#666666">[TEXT]</text>
<polygon fill="none" stroke="black" points="167.2,-107.8 167.2,-138.6 305.7,-138.6 305.7,-107.8 167.2,-107.8"/>
<text text-anchor="start" x="174.2" y="-120" font-family="Arial" font-size="14.00">create_time </text>
<text text-anchor="start" x="251.23" y="-120" font-family="Arial" font-size="14.00" fill="#666666">[TEXT]</text>
<polygon fill="none" stroke="black" points="167.2,-77 167.2,-107.8 305.7,-107.8 305.7,-77 167.2,-77"/>
<text text-anchor="start" x="174.2" y="-89.2" font-family="Arial" font-size="14.00">update_time </text>
<text text-anchor="start" x="255.14" y="-89.2" font-family="Arial" font-size="14.00" fill="#666666">[TEXT]</text>
<polygon fill="none" stroke="black" points="167.2,-46.2 167.2,-77 305.7,-77 305.7,-46.2 167.2,-46.2"/>
<text text-anchor="start" x="174.2" y="-58.4" font-family="Arial" font-size="14.00">enabled </text>
<text text-anchor="start" x="227.92" y="-58.4" font-family="Arial" font-size="14.00" fill="#666666">[INTEGER]</text>
<polygon fill="none" stroke="black" stroke-width="3" points="165.7,-44.7 165.7,-268.1 307.2,-268.1 307.2,-44.7 165.7,-44.7"/>
</g>
<!-- var -->
<g id="node2" class="node">
<title>var</title>
<polygon fill="#efefef" stroke="none" points="43.2,-669.2 43.2,-704.8 181.7,-704.8 181.7,-669.2 43.2,-669.2"/>
<polygon fill="none" stroke="black" points="43.2,-669.2 43.2,-704.8 181.7,-704.8 181.7,-669.2 43.2,-669.2"/>
<text text-anchor="start" x="66.33" y="-682.6" font-family="Arial Bold" font-size="18.00">var</text>
<text text-anchor="start" x="89.32" y="-682.6" font-family="Arial" font-size="14.00">    </text>
<text text-anchor="start" x="120.43" y="-682.6" font-family="Arial" font-size="14.00" fill="#666666">[table]</text>
<polygon fill="none" stroke="black" points="43.2,-638.4 43.2,-669.2 181.7,-669.2 181.7,-638.4 43.2,-638.4"/>
<text text-anchor="start" x="50.2" y="-650.6" font-family="Arial" font-size="14.00">var_id </text>
<text text-anchor="start" x="92.22" y="-650.6" font-family="Arial" font-size="14.00" fill="#666666">[INTEGER]</text>
<polygon fill="none" stroke="black" points="43.2,-607.6 43.2,-638.4 181.7,-638.4 181.7,-607.6 43.2,-607.6"/>
<text text-anchor="start" x="50.2" y="-619.8" font-family="Arial" font-size="14.00">env_id </text>
<text text-anchor="start" x="95.34" y="-619.8" font-family="Arial" font-size="14.00" fill="#666666">[INTEGER]</text>
<polygon fill="none" stroke="black" points="43.2,-576.8 43.2,-607.6 181.7,-607.6 181.7,-576.8 43.2,-576.8"/>
<text text-anchor="start" x="50.2" y="-589" font-family="Arial" font-size="14.00">name </text>
<text text-anchor="start" x="89.11" y="-589" font-family="Arial" font-size="14.00" fill="#666666">[TEXT]</text>
<polygon fill="none" stroke="black" points="43.2,-546 43.2,-576.8 181.7,-576.8 181.7,-546 43.2,-546"/>
<text text-anchor="start" x="50.2" y="-558.2" font-family="Arial" font-size="14.00">comment </text>
<text text-anchor="start" x="111.66" y="-558.2" font-family="Arial" font-size="14.00" fill="#666666">[TEXT]</text>
<polygon fill="none" stroke="black" points="43.2,-515.2 43.2,-546 181.7,-546 181.7,-515.2 43.2,-515.2"/>
<text text-anchor="start" x="50.2" y="-527.4" font-family="Arial" font-size="14.00">create_time </text>
<text text-anchor="start" x="127.23" y="-527.4" font-family="Arial" font-size="14.00" fill="#666666">[TEXT]</text>
<polygon fill="none" stroke="black" points="43.2,-484.4 43.2,-515.2 181.7,-515.2 181.7,-484.4 43.2,-484.4"/>
<text text-anchor="start" x="50.2" y="-496.6" font-family="Arial" font-size="14.00">update_time </text>
<text text-anchor="start" x="131.14" y="-496.6" font-family="Arial" font-size="14.00" fill="#666666">[TEXT]</text>
<polygon fill="none" stroke="black" points="43.2,-453.6 43.2,-484.4 181.7,-484.4 181.7,-453.6 43.2,-453.6"/>
<text text-anchor="start" x="50.2" y="-465.8" font-family="Arial" font-size="14.00">value </text>
<text text-anchor="start" x="87.56" y="-465.8" font-family="Arial" font-size="14.00" fill="#666666">[TEXT]</text>
<polygon fill="none" stroke="black" points="43.2,-422.8 43.2,-453.6 181.7,-453.6 181.7,-422.8 43.2,-422.8"/>
<text text-anchor="start" x="50.2" y="-435" font-family="Arial" font-size="14.00">enabled </text>
<text text-anchor="start" x="103.92" y="-435" font-family="Arial" font-size="14.00" fill="#666666">[INTEGER]</text>
<polygon fill="none" stroke="black" points="43.2,-392 43.2,-422.8 181.7,-422.8 181.7,-392 43.2,-392"/>
<text text-anchor="start" x="50.2" y="-404.2" font-family="Arial" font-size="14.00">completions </text>
<text text-anchor="start" x="128.79" y="-404.2" font-family="Arial" font-size="14.00" fill="#666666">[TEXT]</text>
</g>
<!-- var&#45;&gt;env -->
<g id="edge1" class="edge">
<title>var:env_id&#45;&gt;env:env_id</title>
<path fill="none" stroke="black" d="M192.58,-620.72C237.7,-597.6 192.7,-404.98 181.7,-348.8 178.39,-331.87 170.57,-329.72 167.2,-312.8 158.76,-270.43 123,-215.6 166.2,-215.6"/>
<polygon fill="black" stroke="black" points="192.77,-620.68 182.02,-618.54 187.58,-621.88 183.35,-622.85 183.35,-622.85 183.35,-622.85 187.58,-621.88 184.04,-627.31 192.77,-620.68"/>
</g>
<!-- var_ref -->
<g id="node3" class="node">
<title>var_ref</title>
<polygon fill="#efefef" stroke="none" points="286.38,-653.8 286.38,-689.4 436.53,-689.4 436.53,-653.8 286.38,-653.8"/>
<polygon fill="none" stroke="black" points="286.38,-653.8 286.38,-689.4 436.53,-689.4 436.53,-653.8 286.38,-653.8"/>
<text text-anchor="start" x="300.84" y="-667.2" font-family="Arial Bold" font-size="18.00">var_ref</text>
<text text-anchor="start" x="352.8" y="-667.2" font-family="Arial" font-size="14.00">    </text>
<text text-anchor="start" x="383.92" y="-667.2" font-family="Arial" font-size="14.00" fill="#666666">[table]</text>
<polygon fill="none" stroke="black" points="286.38,-623 286.38,-653.8 436.53,-653.8 436.53,-623 286.38,-623"/>
<text text-anchor="start" x="293.38" y="-635.2" font-family="Arial" font-size="14.00">var_ref_id </text>
<text text-anchor="start" x="359.52" y="-635.2" font-family="Arial" font-size="14.00" fill="#666666">[INTEGER]</text>
<polygon fill="none" stroke="black" points="286.38,-592.2 286.38,-623 436.53,-623 436.53,-592.2 286.38,-592.2"/>
<text text-anchor="start" x="293.38" y="-604.4" font-family="Arial" font-size="14.00">env_id </text>
<text text-anchor="start" x="338.52" y="-604.4" font-family="Arial" font-size="14.00" fill="#666666">[INTEGER]</text>
<polygon fill="none" stroke="black" points="286.38,-561.4 286.38,-592.2 436.53,-592.2 436.53,-561.4 286.38,-561.4"/>
<text text-anchor="start" x="293.38" y="-573.6" font-family="Arial" font-size="14.00">name </text>
<text text-anchor="start" x="332.29" y="-573.6" font-family="Arial" font-size="14.00" fill="#666666">[TEXT]</text>
<polygon fill="none" stroke="black" points="286.38,-530.6 286.38,-561.4 436.53,-561.4 436.53,-530.6 286.38,-530.6"/>
<text text-anchor="start" x="293.38" y="-542.8" font-family="Arial" font-size="14.00">comment </text>
<text text-anchor="start" x="354.84" y="-542.8" font-family="Arial" font-size="14.00" fill="#666666">[TEXT]</text>
<polygon fill="none" stroke="black" points="286.38,-499.8 286.38,-530.6 436.53,-530.6 436.53,-499.8 286.38,-499.8"/>
<text text-anchor="start" x="293.38" y="-512" font-family="Arial" font-size="14.00">create_time </text>
<text text-anchor="start" x="370.41" y="-512" font-family="Arial" font-size="14.00" fill="#666666">[TEXT]</text>
<polygon fill="none" stroke="black" points="286.38,-469 286.38,-499.8 436.53,-499.8 436.53,-469 286.38,-469"/>
<text text-anchor="start" x="293.38" y="-481.2" font-family="Arial" font-size="14.00">update_time </text>
<text text-anchor="start" x="374.32" y="-481.2" font-family="Arial" font-size="14.00" fill="#666666">[TEXT]</text>
<polygon fill="none" stroke="black" points="286.38,-438.2 286.38,-469 436.53,-469 436.53,-438.2 286.38,-438.2"/>
<text text-anchor="start" x="293.38" y="-450.4" font-family="Arial" font-size="14.00">var_id </text>
<text text-anchor="start" x="335.4" y="-450.4" font-family="Arial" font-size="14.00" fill="#666666">[INTEGER]</text>
<polygon fill="none" stroke="black" points="286.38,-407.4 286.38,-438.2 436.53,-438.2 436.53,-407.4 286.38,-407.4"/>
<text text-anchor="start" x="293.38" y="-419.6" font-family="Arial" font-size="14.00">enabled </text>
<text text-anchor="start" x="347.09" y="-419.6" font-family="Arial" font-size="14.00" fill="#666666">[INTEGER]</text>
</g>
<!-- var_ref&#45;&gt;env -->
<g id="edge2" class="edge">
<title>var_ref:env_id&#45;&gt;env:env_id</title>
<path fill="none" stroke="black" d="M275.39,-604.89C237.48,-581.53 277.28,-413.66 286.38,-364.2 290.79,-340.2 301.21,-336.79 305.7,-312.8 313.65,-270.33 349.91,-215.6 306.7,-215.6"/>
<polygon fill="black" stroke="black" points="275.4,-604.89 283.88,-611.86 280.55,-606.29 284.73,-607.42 284.73,-607.42 284.73,-607.42 280.55,-606.29 286.23,-603.17 275.4,-604.89"/>
</g>
</g>
</svg>
