<?xml version="1.0" encoding="UTF-8" standalone="no"?>
<!DOCTYPE svg PUBLIC "-//W3C//DTD SVG 1.1//EN"
 "http://www.w3.org/Graphics/SVG/1.1/DTD/svg11.dtd">
<!-- Generated by graphviz version 12.1.2 (20240928.0832)
 -->
<!-- Title: migration_v2 Pages: 1 -->
<svg width="287pt" height="228pt"
 viewBox="0.00 0.00 287.13 228.40" xmlns="http://www.w3.org/2000/svg" xmlns:xlink="http://www.w3.org/1999/xlink">
<g id="graph0" class="graph" transform="scale(1 1) rotate(0) translate(4 224.4)">
<title>migration_v2</title>
<polygon fill="white" stroke="none" points="-4,4 -4,-224.4 283.13,-224.4 283.13,4 -4,4"/>
<!-- migration_v2 -->
<g id="node1" class="node">
<title>migration_v2</title>
<polygon fill="#efefef" stroke="none" points="46.2,-138.6 46.2,-174.2 232.93,-174.2 232.93,-138.6 46.2,-138.6"/>
<polygon fill="none" stroke="black" points="46.2,-138.6 46.2,-174.2 232.93,-174.2 232.93,-138.6 46.2,-138.6"/>
<text text-anchor="start" x="56.44" y="-152" font-family="Arial Bold" font-size="18.00">migration_v2</text>
<text text-anchor="start" x="153.43" y="-152" font-family="Arial" font-size="14.00">    </text>
<text text-anchor="start" x="184.55" y="-152" font-family="Arial" font-size="14.00" fill="#666666">[table]</text>
<polygon fill="none" stroke="black" points="46.2,-107.8 46.2,-138.6 232.93,-138.6 232.93,-107.8 46.2,-107.8"/>
<text text-anchor="start" x="53.2" y="-120" font-family="Arial" font-size="14.00">migration_v2_id </text>
<text text-anchor="start" x="155.92" y="-120" font-family="Arial" font-size="14.00" fill="#666666">[INTEGER]</text>
<polygon fill="none" stroke="black" points="46.2,-77 46.2,-107.8 232.93,-107.8 232.93,-77 46.2,-77"/>
<text text-anchor="start" x="53.2" y="-89.2" font-family="Arial" font-size="14.00">file_name </text>
<text text-anchor="start" x="117.79" y="-89.2" font-family="Arial" font-size="14.00" fill="#666666">[TEXT]</text>
<polygon fill="none" stroke="black" points="46.2,-46.2 46.2,-77 232.93,-77 232.93,-46.2 46.2,-46.2"/>
<text text-anchor="start" x="53.2" y="-58.4" font-family="Arial" font-size="14.00">migrate_time </text>
<text text-anchor="start" x="138.01" y="-58.4" font-family="Arial" font-size="14.00" fill="#666666">[TEXT]</text>
<polygon fill="none" stroke="black" stroke-width="3" points="44.7,-44.7 44.7,-175.7 234.43,-175.7 234.43,-44.7 44.7,-44.7"/>
</g>
</g>
</svg>
