<?xml version="1.0" encoding="UTF-8" standalone="no"?>
<!DOCTYPE svg PUBLIC "-//W3C//DTD SVG 1.1//EN"
 "http://www.w3.org/Graphics/SVG/1.1/DTD/svg11.dtd">
<!-- Generated by graphviz version 12.1.2 (20240928.0832)
 -->
<!-- Title: Envelope Database Schema Pages: 1 -->
<svg width="1968pt" height="1216pt"
 viewBox="0.00 0.00 1968.19 1216.00" xmlns="http://www.w3.org/2000/svg" xmlns:xlink="http://www.w3.org/1999/xlink">
<g id="graph0" class="graph" transform="scale(1 1) rotate(0) translate(4 1212)">
<title>Envelope Database Schema</title>
<polygon fill="white" stroke="none" points="-4,4 -4,-1212 1964.19,-1212 1964.19,4 -4,4"/>
<!-- migration_v2 -->
<g id="node1" class="node">
<title>migration_v2</title>
<polygon fill="#efefef" stroke="none" points="43.2,-1021.4 43.2,-1057 229.93,-1057 229.93,-1021.4 43.2,-1021.4"/>
<polygon fill="none" stroke="black" points="43.2,-1021.4 43.2,-1057 229.93,-1057 229.93,-1021.4 43.2,-1021.4"/>
<text text-anchor="start" x="53.44" y="-1034.8" font-family="Arial Bold" font-size="18.00">migration_v2</text>
<text text-anchor="start" x="150.43" y="-1034.8" font-family="Arial" font-size="14.00">    </text>
<text text-anchor="start" x="181.55" y="-1034.8" font-family="Arial" font-size="14.00" fill="#666666">[table]</text>
<polygon fill="none" stroke="black" points="43.2,-990.6 43.2,-1021.4 229.93,-1021.4 229.93,-990.6 43.2,-990.6"/>
<text text-anchor="start" x="50.2" y="-1002.8" font-family="Arial" font-size="14.00">migration_v2_id </text>
<text text-anchor="start" x="152.92" y="-1002.8" font-family="Arial" font-size="14.00" fill="#666666">[INTEGER]</text>
<polygon fill="none" stroke="black" points="43.2,-959.8 43.2,-990.6 229.93,-990.6 229.93,-959.8 43.2,-959.8"/>
<text text-anchor="start" x="50.2" y="-972" font-family="Arial" font-size="14.00">file_name </text>
<text text-anchor="start" x="114.79" y="-972" font-family="Arial" font-size="14.00" fill="#666666">[TEXT]</text>
<polygon fill="none" stroke="black" points="43.2,-929 43.2,-959.8 229.93,-959.8 229.93,-929 43.2,-929"/>
<text text-anchor="start" x="50.2" y="-941.2" font-family="Arial" font-size="14.00">migrate_time </text>
<text text-anchor="start" x="135.01" y="-941.2" font-family="Arial" font-size="14.00" fill="#666666">[TEXT]</text>
</g>
<!-- env -->
<g id="node2" class="node">
<title>env</title>
<polygon fill="#efefef" stroke="none" points="340.31,-228 340.31,-263.6 478.82,-263.6 478.82,-228 340.31,-228"/>
<polygon fill="none" stroke="black" points="340.31,-228 340.31,-263.6 478.82,-263.6 478.82,-228 340.31,-228"/>
<text text-anchor="start" x="361.94" y="-241.4" font-family="Arial Bold" font-size="18.00">env</text>
<text text-anchor="start" x="387.93" y="-241.4" font-family="Arial" font-size="14.00">    </text>
<text text-anchor="start" x="419.05" y="-241.4" font-family="Arial" font-size="14.00" fill="#666666">[table]</text>
<polygon fill="none" stroke="black" points="340.31,-197.2 340.31,-228 478.82,-228 478.82,-197.2 340.31,-197.2"/>
<text text-anchor="start" x="347.31" y="-209.4" font-family="Arial" font-size="14.00">env_id </text>
<text text-anchor="start" x="392.46" y="-209.4" font-family="Arial" font-size="14.00" fill="#666666">[INTEGER]</text>
<polygon fill="none" stroke="black" points="340.31,-166.4 340.31,-197.2 478.82,-197.2 478.82,-166.4 340.31,-166.4"/>
<text text-anchor="start" x="347.31" y="-178.6" font-family="Arial" font-size="14.00">name </text>
<text text-anchor="start" x="386.22" y="-178.6" font-family="Arial" font-size="14.00" fill="#666666">[TEXT]</text>
<polygon fill="none" stroke="black" points="340.31,-135.6 340.31,-166.4 478.82,-166.4 478.82,-135.6 340.31,-135.6"/>
<text text-anchor="start" x="347.31" y="-147.8" font-family="Arial" font-size="14.00">comment </text>
<text text-anchor="start" x="408.78" y="-147.8" font-family="Arial" font-size="14.00" fill="#666666">[TEXT]</text>
<polygon fill="none" stroke="black" points="340.31,-104.8 340.31,-135.6 478.82,-135.6 478.82,-104.8 340.31,-104.8"/>
<text text-anchor="start" x="347.31" y="-117" font-family="Arial" font-size="14.00">create_time </text>
<text text-anchor="start" x="424.35" y="-117" font-family="Arial" font-size="14.00" fill="#666666">[TEXT]</text>
<polygon fill="none" stroke="black" points="340.31,-74 340.31,-104.8 478.82,-104.8 478.82,-74 340.31,-74"/>
<text text-anchor="start" x="347.31" y="-86.2" font-family="Arial" font-size="14.00">update_time </text>
<text text-anchor="start" x="428.26" y="-86.2" font-family="Arial" font-size="14.00" fill="#666666">[TEXT]</text>
<polygon fill="none" stroke="black" points="340.31,-43.2 340.31,-74 478.82,-74 478.82,-43.2 340.31,-43.2"/>
<text text-anchor="start" x="347.31" y="-55.4" font-family="Arial" font-size="14.00">enabled </text>
<text text-anchor="start" x="401.03" y="-55.4" font-family="Arial" font-size="14.00" fill="#666666">[INTEGER]</text>
</g>
<!-- var -->
<g id="node3" class="node">
<title>var</title>
<polygon fill="#efefef" stroke="none" points="410.31,-663.2 410.31,-698.8 548.82,-698.8 548.82,-663.2 410.31,-663.2"/>
<polygon fill="none" stroke="black" points="410.31,-663.2 410.31,-698.8 548.82,-698.8 548.82,-663.2 410.31,-663.2"/>
<text text-anchor="start" x="433.45" y="-676.6" font-family="Arial Bold" font-size="18.00">var</text>
<text text-anchor="start" x="456.43" y="-676.6" font-family="Arial" font-size="14.00">    </text>
<text text-anchor="start" x="487.55" y="-676.6" font-family="Arial" font-size="14.00" fill="#666666">[table]</text>
<polygon fill="none" stroke="black" points="410.31,-632.4 410.31,-663.2 548.82,-663.2 548.82,-632.4 410.31,-632.4"/>
<text text-anchor="start" x="417.31" y="-644.6" font-family="Arial" font-size="14.00">var_id </text>
<text text-anchor="start" x="459.33" y="-644.6" font-family="Arial" font-size="14.00" fill="#666666">[INTEGER]</text>
<polygon fill="none" stroke="black" points="410.31,-601.6 410.31,-632.4 548.82,-632.4 548.82,-601.6 410.31,-601.6"/>
<text text-anchor="start" x="417.31" y="-613.8" font-family="Arial" font-size="14.00">env_id </text>
<text text-anchor="start" x="462.46" y="-613.8" font-family="Arial" font-size="14.00" fill="#666666">[INTEGER]</text>
<polygon fill="none" stroke="black" points="410.31,-570.8 410.31,-601.6 548.82,-601.6 548.82,-570.8 410.31,-570.8"/>
<text text-anchor="start" x="417.31" y="-583" font-family="Arial" font-size="14.00">name </text>
<text text-anchor="start" x="456.22" y="-583" font-family="Arial" font-size="14.00" fill="#666666">[TEXT]</text>
<polygon fill="none" stroke="black" points="410.31,-540 410.31,-570.8 548.82,-570.8 548.82,-540 410.31,-540"/>
<text text-anchor="start" x="417.31" y="-552.2" font-family="Arial" font-size="14.00">comment </text>
<text text-anchor="start" x="478.78" y="-552.2" font-family="Arial" font-size="14.00" fill="#666666">[TEXT]</text>
<polygon fill="none" stroke="black" points="410.31,-509.2 410.31,-540 548.82,-540 548.82,-509.2 410.31,-509.2"/>
<text text-anchor="start" x="417.31" y="-521.4" font-family="Arial" font-size="14.00">create_time </text>
<text text-anchor="start" x="494.35" y="-521.4" font-family="Arial" font-size="14.00" fill="#666666">[TEXT]</text>
<polygon fill="none" stroke="black" points="410.31,-478.4 410.31,-509.2 548.82,-509.2 548.82,-478.4 410.31,-478.4"/>
<text text-anchor="start" x="417.31" y="-490.6" font-family="Arial" font-size="14.00">update_time </text>
<text text-anchor="start" x="498.26" y="-490.6" font-family="Arial" font-size="14.00" fill="#666666">[TEXT]</text>
<polygon fill="none" stroke="black" points="410.31,-447.6 410.31,-478.4 548.82,-478.4 548.82,-447.6 410.31,-447.6"/>
<text text-anchor="start" x="417.31" y="-459.8" font-family="Arial" font-size="14.00">value </text>
<text text-anchor="start" x="454.67" y="-459.8" font-family="Arial" font-size="14.00" fill="#666666">[TEXT]</text>
<polygon fill="none" stroke="black" points="410.31,-416.8 410.31,-447.6 548.82,-447.6 548.82,-416.8 410.31,-416.8"/>
<text text-anchor="start" x="417.31" y="-429" font-family="Arial" font-size="14.00">enabled </text>
<text text-anchor="start" x="471.03" y="-429" font-family="Arial" font-size="14.00" fill="#666666">[INTEGER]</text>
<polygon fill="none" stroke="black" points="410.31,-386 410.31,-416.8 548.82,-416.8 548.82,-386 410.31,-386"/>
<text text-anchor="start" x="417.31" y="-398.2" font-family="Arial" font-size="14.00">completions </text>
<text text-anchor="start" x="495.91" y="-398.2" font-family="Arial" font-size="14.00" fill="#666666">[TEXT]</text>
</g>
<!-- var&#45;&gt;env -->
<g id="edge1" class="edge">
<title>var:env_id&#45;&gt;env:env_id</title>
<path fill="none" stroke="black" d="M399.23,-614.64C352.06,-590.73 380.62,-391.74 410.31,-342.8 428.15,-313.39 460.88,-336.14 478.82,-306.8 500.66,-271.08 521.69,-212.6 479.82,-212.6"/>
<polygon fill="black" stroke="black" points="399.25,-614.65 407.96,-621.31 404.44,-615.86 408.66,-616.85 408.66,-616.85 408.66,-616.85 404.44,-615.86 410.01,-612.54 399.25,-614.65"/>
</g>
<!-- var_ref -->
<g id="node4" class="node">
<title>var_ref</title>
<polygon fill="#efefef" stroke="none" points="334.49,-1098.4 334.49,-1134 484.64,-1134 484.64,-1098.4 334.49,-1098.4"/>
<polygon fill="none" stroke="black" points="334.49,-1098.4 334.49,-1134 484.64,-1134 484.64,-1098.4 334.49,-1098.4"/>
<text text-anchor="start" x="348.96" y="-1111.8" font-family="Arial Bold" font-size="18.00">var_ref</text>
<text text-anchor="start" x="400.92" y="-1111.8" font-family="Arial" font-size="14.00">    </text>
<text text-anchor="start" x="432.04" y="-1111.8" font-family="Arial" font-size="14.00" fill="#666666">[table]</text>
<polygon fill="none" stroke="black" points="334.49,-1067.6 334.49,-1098.4 484.64,-1098.4 484.64,-1067.6 334.49,-1067.6"/>
<text text-anchor="start" x="341.49" y="-1079.8" font-family="Arial" font-size="14.00">var_ref_id </text>
<text text-anchor="start" x="407.63" y="-1079.8" font-family="Arial" font-size="14.00" fill="#666666">[INTEGER]</text>
<polygon fill="none" stroke="black" points="334.49,-1036.8 334.49,-1067.6 484.64,-1067.6 484.64,-1036.8 334.49,-1036.8"/>
<text text-anchor="start" x="341.49" y="-1049" font-family="Arial" font-size="14.00">env_id </text>
<text text-anchor="start" x="386.63" y="-1049" font-family="Arial" font-size="14.00" fill="#666666">[INTEGER]</text>
<polygon fill="none" stroke="black" points="334.49,-1006 334.49,-1036.8 484.64,-1036.8 484.64,-1006 334.49,-1006"/>
<text text-anchor="start" x="341.49" y="-1018.2" font-family="Arial" font-size="14.00">name </text>
<text text-anchor="start" x="380.4" y="-1018.2" font-family="Arial" font-size="14.00" fill="#666666">[TEXT]</text>
<polygon fill="none" stroke="black" points="334.49,-975.2 334.49,-1006 484.64,-1006 484.64,-975.2 334.49,-975.2"/>
<text text-anchor="start" x="341.49" y="-987.4" font-family="Arial" font-size="14.00">comment </text>
<text text-anchor="start" x="402.95" y="-987.4" font-family="Arial" font-size="14.00" fill="#666666">[TEXT]</text>
<polygon fill="none" stroke="black" points="334.49,-944.4 334.49,-975.2 484.64,-975.2 484.64,-944.4 334.49,-944.4"/>
<text text-anchor="start" x="341.49" y="-956.6" font-family="Arial" font-size="14.00">create_time </text>
<text text-anchor="start" x="418.52" y="-956.6" font-family="Arial" font-size="14.00" fill="#666666">[TEXT]</text>
<polygon fill="none" stroke="black" points="334.49,-913.6 334.49,-944.4 484.64,-944.4 484.64,-913.6 334.49,-913.6"/>
<text text-anchor="start" x="341.49" y="-925.8" font-family="Arial" font-size="14.00">update_time </text>
<text text-anchor="start" x="422.43" y="-925.8" font-family="Arial" font-size="14.00" fill="#666666">[TEXT]</text>
<polygon fill="none" stroke="black" points="334.49,-882.8 334.49,-913.6 484.64,-913.6 484.64,-882.8 334.49,-882.8"/>
<text text-anchor="start" x="341.49" y="-895" font-family="Arial" font-size="14.00">var_id </text>
<text text-anchor="start" x="383.51" y="-895" font-family="Arial" font-size="14.00" fill="#666666">[INTEGER]</text>
<polygon fill="none" stroke="black" points="334.49,-852 334.49,-882.8 484.64,-882.8 484.64,-852 334.49,-852"/>
<text text-anchor="start" x="341.49" y="-864.2" font-family="Arial" font-size="14.00">enabled </text>
<text text-anchor="start" x="395.21" y="-864.2" font-family="Arial" font-size="14.00" fill="#666666">[INTEGER]</text>
</g>
<!-- var_ref&#45;&gt;env -->
<g id="edge3" class="edge">
<title>var_ref:env_id&#45;&gt;env:env_id</title>
<path fill="none" stroke="black" d="M326.31,-1044.94C287.6,-962.88 295.22,-212.6 339.31,-212.6"/>
<polygon fill="black" stroke="black" points="326.22,-1044.85 330.06,-1055.13 329.97,-1048.65 333.02,-1051.72 333.02,-1051.72 333.02,-1051.72 329.97,-1048.65 336.45,-1048.8 326.22,-1044.85"/>
</g>
<!-- var_ref&#45;&gt;var -->
<g id="edge2" class="edge">
<title>var_ref:var_id&#45;&gt;var:var_id</title>
<path fill="none" stroke="black" d="M495.84,-896.63C520.51,-887.57 499.36,-841.33 484.64,-808.8 466.33,-768.33 428.61,-782.47 410.31,-742 393.06,-703.85 367.44,-647.8 409.31,-647.8"/>
<polygon fill="black" stroke="black" points="495.85,-896.63 485.29,-893.7 490.58,-897.44 486.3,-898.1 486.3,-898.1 486.3,-898.1 490.58,-897.44 486.66,-902.6 495.85,-896.63"/>
</g>
<!-- vw_env_var_var_ref_unique_name -->
<g id="node5" class="node">
<title>vw_env_var_var_ref_unique_name</title>
<polygon fill="#efefef" stroke="none" points="589.16,-1006 589.16,-1041.6 925.97,-1041.6 925.97,-1006 589.16,-1006"/>
<polygon fill="none" stroke="black" points="589.16,-1006 589.16,-1041.6 925.97,-1041.6 925.97,-1006 589.16,-1006"/>
<text text-anchor="start" x="596.16" y="-1019.4" font-family="Arial Bold" font-size="18.00">vw_env_var_var_ref_unique_name</text>
<text text-anchor="start" x="852.06" y="-1019.4" font-family="Arial" font-size="14.00">    </text>
<text text-anchor="start" x="883.18" y="-1019.4" font-family="Arial" font-size="14.00" fill="#666666">[view]</text>
<polygon fill="none" stroke="black" points="589.16,-975.2 589.16,-1006 925.97,-1006 925.97,-975.2 589.16,-975.2"/>
<text text-anchor="start" x="596.16" y="-987.4" font-family="Arial" font-size="14.00">env_id </text>
<text text-anchor="start" x="641.31" y="-987.4" font-family="Arial" font-size="14.00" fill="#666666">[INTEGER]</text>
<polygon fill="none" stroke="black" points="589.16,-944.4 589.16,-975.2 925.97,-975.2 925.97,-944.4 589.16,-944.4"/>
<text text-anchor="start" x="596.16" y="-956.6" font-family="Arial" font-size="14.00">name </text>
<text text-anchor="start" x="635.07" y="-956.6" font-family="Arial" font-size="14.00" fill="#666666">[TEXT]</text>
</g>
<!-- vw_var_ref_expanded -->
<g id="node6" class="node">
<title>vw_var_ref_expanded</title>
<polygon fill="#efefef" stroke="none" points="1030.65,-1129.2 1030.65,-1164.8 1272.48,-1164.8 1272.48,-1129.2 1030.65,-1129.2"/>
<polygon fill="none" stroke="black" points="1030.65,-1129.2 1030.65,-1164.8 1272.48,-1164.8 1272.48,-1129.2 1030.65,-1129.2"/>
<text text-anchor="start" x="1037.65" y="-1142.6" font-family="Arial Bold" font-size="18.00">vw_var_ref_expanded</text>
<text text-anchor="start" x="1198.58" y="-1142.6" font-family="Arial" font-size="14.00">    </text>
<text text-anchor="start" x="1229.69" y="-1142.6" font-family="Arial" font-size="14.00" fill="#666666">[view]</text>
<polygon fill="none" stroke="black" points="1030.65,-1098.4 1030.65,-1129.2 1272.48,-1129.2 1272.48,-1098.4 1030.65,-1098.4"/>
<text text-anchor="start" x="1037.65" y="-1110.6" font-family="Arial" font-size="14.00">var_ref_id </text>
<text text-anchor="start" x="1103.79" y="-1110.6" font-family="Arial" font-size="14.00" fill="#666666">[INTEGER]</text>
<polygon fill="none" stroke="black" points="1030.65,-1067.6 1030.65,-1098.4 1272.48,-1098.4 1272.48,-1067.6 1030.65,-1067.6"/>
<text text-anchor="start" x="1037.65" y="-1079.8" font-family="Arial" font-size="14.00">env_id </text>
<text text-anchor="start" x="1082.79" y="-1079.8" font-family="Arial" font-size="14.00" fill="#666666">[INTEGER]</text>
<polygon fill="none" stroke="black" points="1030.65,-1036.8 1030.65,-1067.6 1272.48,-1067.6 1272.48,-1036.8 1030.65,-1036.8"/>
<text text-anchor="start" x="1037.65" y="-1049" font-family="Arial" font-size="14.00">env_name </text>
<text text-anchor="start" x="1106.92" y="-1049" font-family="Arial" font-size="14.00" fill="#666666">[TEXT]</text>
<polygon fill="none" stroke="black" points="1030.65,-1006 1030.65,-1036.8 1272.48,-1036.8 1272.48,-1006 1030.65,-1006"/>
<text text-anchor="start" x="1037.65" y="-1018.2" font-family="Arial" font-size="14.00">name </text>
<text text-anchor="start" x="1076.56" y="-1018.2" font-family="Arial" font-size="14.00" fill="#666666">[TEXT]</text>
<polygon fill="none" stroke="black" points="1030.65,-975.2 1030.65,-1006 1272.48,-1006 1272.48,-975.2 1030.65,-975.2"/>
<text text-anchor="start" x="1037.65" y="-987.4" font-family="Arial" font-size="14.00">var_id </text>
<text text-anchor="start" x="1079.67" y="-987.4" font-family="Arial" font-size="14.00" fill="#666666">[INTEGER]</text>
<polygon fill="none" stroke="black" points="1030.65,-944.4 1030.65,-975.2 1272.48,-975.2 1272.48,-944.4 1030.65,-944.4"/>
<text text-anchor="start" x="1037.65" y="-956.6" font-family="Arial" font-size="14.00">ref_var_name </text>
<text text-anchor="start" x="1127.92" y="-956.6" font-family="Arial" font-size="14.00" fill="#666666">[TEXT]</text>
<polygon fill="none" stroke="black" points="1030.65,-913.6 1030.65,-944.4 1272.48,-944.4 1272.48,-913.6 1030.65,-913.6"/>
<text text-anchor="start" x="1037.65" y="-925.8" font-family="Arial" font-size="14.00">ref_env_name </text>
<text text-anchor="start" x="1131.04" y="-925.8" font-family="Arial" font-size="14.00" fill="#666666">[TEXT]</text>
<polygon fill="none" stroke="black" points="1030.65,-882.8 1030.65,-913.6 1272.48,-913.6 1272.48,-882.8 1030.65,-882.8"/>
<text text-anchor="start" x="1037.65" y="-895" font-family="Arial" font-size="14.00">comment </text>
<text text-anchor="start" x="1099.11" y="-895" font-family="Arial" font-size="14.00" fill="#666666">[TEXT]</text>
<polygon fill="none" stroke="black" points="1030.65,-852 1030.65,-882.8 1272.48,-882.8 1272.48,-852 1030.65,-852"/>
<text text-anchor="start" x="1037.65" y="-864.2" font-family="Arial" font-size="14.00">create_time </text>
<text text-anchor="start" x="1114.68" y="-864.2" font-family="Arial" font-size="14.00" fill="#666666">[TEXT]</text>
<polygon fill="none" stroke="black" points="1030.65,-821.2 1030.65,-852 1272.48,-852 1272.48,-821.2 1030.65,-821.2"/>
<text text-anchor="start" x="1037.65" y="-833.4" font-family="Arial" font-size="14.00">update_time </text>
<text text-anchor="start" x="1118.59" y="-833.4" font-family="Arial" font-size="14.00" fill="#666666">[TEXT]</text>
</g>
<!-- vw_env_exportable -->
<g id="node7" class="node">
<title>vw_env_exportable</title>
<polygon fill="#efefef" stroke="none" points="1377.14,-1113.8 1377.14,-1149.4 1599.99,-1149.4 1599.99,-1113.8 1377.14,-1113.8"/>
<polygon fill="none" stroke="black" points="1377.14,-1113.8 1377.14,-1149.4 1599.99,-1149.4 1599.99,-1113.8 1377.14,-1113.8"/>
<text text-anchor="start" x="1384.14" y="-1127.2" font-family="Arial Bold" font-size="18.00">vw_env_exportable</text>
<text text-anchor="start" x="1526.09" y="-1127.2" font-family="Arial" font-size="14.00">    </text>
<text text-anchor="start" x="1557.21" y="-1127.2" font-family="Arial" font-size="14.00" fill="#666666">[view]</text>
<polygon fill="none" stroke="black" points="1377.14,-1083 1377.14,-1113.8 1599.99,-1113.8 1599.99,-1083 1377.14,-1083"/>
<text text-anchor="start" x="1384.14" y="-1095.2" font-family="Arial" font-size="14.00">env_id </text>
<text text-anchor="start" x="1429.28" y="-1095.2" font-family="Arial" font-size="14.00" fill="#666666">[INTEGER]</text>
<polygon fill="none" stroke="black" points="1377.14,-1052.2 1377.14,-1083 1599.99,-1083 1599.99,-1052.2 1377.14,-1052.2"/>
<text text-anchor="start" x="1384.14" y="-1064.4" font-family="Arial" font-size="14.00">env_name </text>
<text text-anchor="start" x="1453.41" y="-1064.4" font-family="Arial" font-size="14.00" fill="#666666">[TEXT]</text>
<polygon fill="none" stroke="black" points="1377.14,-1021.4 1377.14,-1052.2 1599.99,-1052.2 1599.99,-1021.4 1377.14,-1021.4"/>
<text text-anchor="start" x="1384.14" y="-1033.6" font-family="Arial" font-size="14.00">name </text>
<text text-anchor="start" x="1423.05" y="-1033.6" font-family="Arial" font-size="14.00" fill="#666666">[TEXT]</text>
<polygon fill="none" stroke="black" points="1377.14,-990.6 1377.14,-1021.4 1599.99,-1021.4 1599.99,-990.6 1377.14,-990.6"/>
<text text-anchor="start" x="1384.14" y="-1002.8" font-family="Arial" font-size="14.00">type </text>
<text text-anchor="start" x="1414.49" y="-1002.8" font-family="Arial" font-size="14.00" fill="#666666">[]</text>
<polygon fill="none" stroke="black" points="1377.14,-959.8 1377.14,-990.6 1599.99,-990.6 1599.99,-959.8 1377.14,-959.8"/>
<text text-anchor="start" x="1384.14" y="-972" font-family="Arial" font-size="14.00">comment </text>
<text text-anchor="start" x="1445.6" y="-972" font-family="Arial" font-size="14.00" fill="#666666">[TEXT]</text>
<polygon fill="none" stroke="black" points="1377.14,-929 1377.14,-959.8 1599.99,-959.8 1599.99,-929 1377.14,-929"/>
<text text-anchor="start" x="1384.14" y="-941.2" font-family="Arial" font-size="14.00">enabled </text>
<text text-anchor="start" x="1437.85" y="-941.2" font-family="Arial" font-size="14.00" fill="#666666">[INTEGER]</text>
<polygon fill="none" stroke="black" points="1377.14,-898.2 1377.14,-929 1599.99,-929 1599.99,-898.2 1377.14,-898.2"/>
<text text-anchor="start" x="1384.14" y="-910.4" font-family="Arial" font-size="14.00">value </text>
<text text-anchor="start" x="1421.5" y="-910.4" font-family="Arial" font-size="14.00" fill="#666666">[TEXT]</text>
<polygon fill="none" stroke="black" points="1377.14,-867.4 1377.14,-898.2 1599.99,-898.2 1599.99,-867.4 1377.14,-867.4"/>
<text text-anchor="start" x="1384.14" y="-879.6" font-family="Arial" font-size="14.00">create_time </text>
<text text-anchor="start" x="1461.17" y="-879.6" font-family="Arial" font-size="14.00" fill="#666666">[TEXT]</text>
<polygon fill="none" stroke="black" points="1377.14,-836.6 1377.14,-867.4 1599.99,-867.4 1599.99,-836.6 1377.14,-836.6"/>
<text text-anchor="start" x="1384.14" y="-848.8" font-family="Arial" font-size="14.00">update_time </text>
<text text-anchor="start" x="1465.08" y="-848.8" font-family="Arial" font-size="14.00" fill="#666666">[TEXT]</text>
</g>
<!-- vw_var_expanded -->
<g id="node8" class="node">
<title>vw_var_expanded</title>
<polygon fill="#efefef" stroke="none" points="1704.14,-1129.2 1704.14,-1164.8 1916.99,-1164.8 1916.99,-1129.2 1704.14,-1129.2"/>
<polygon fill="none" stroke="black" points="1704.14,-1129.2 1704.14,-1164.8 1916.99,-1164.8 1916.99,-1129.2 1704.14,-1129.2"/>
<text text-anchor="start" x="1711.14" y="-1142.6" font-family="Arial Bold" font-size="18.00">vw_var_expanded</text>
<text text-anchor="start" x="1843.09" y="-1142.6" font-family="Arial" font-size="14.00">    </text>
<text text-anchor="start" x="1874.21" y="-1142.6" font-family="Arial" font-size="14.00" fill="#666666">[view]</text>
<polygon fill="none" stroke="black" points="1704.14,-1098.4 1704.14,-1129.2 1916.99,-1129.2 1916.99,-1098.4 1704.14,-1098.4"/>
<text text-anchor="start" x="1711.14" y="-1110.6" font-family="Arial" font-size="14.00">var_id </text>
<text text-anchor="start" x="1753.16" y="-1110.6" font-family="Arial" font-size="14.00" fill="#666666">[INTEGER]</text>
<polygon fill="none" stroke="black" points="1704.14,-1067.6 1704.14,-1098.4 1916.99,-1098.4 1916.99,-1067.6 1704.14,-1067.6"/>
<text text-anchor="start" x="1711.14" y="-1079.8" font-family="Arial" font-size="14.00">env_id </text>
<text text-anchor="start" x="1756.28" y="-1079.8" font-family="Arial" font-size="14.00" fill="#666666">[INTEGER]</text>
<polygon fill="none" stroke="black" points="1704.14,-1036.8 1704.14,-1067.6 1916.99,-1067.6 1916.99,-1036.8 1704.14,-1036.8"/>
<text text-anchor="start" x="1711.14" y="-1049" font-family="Arial" font-size="14.00">env_name </text>
<text text-anchor="start" x="1780.41" y="-1049" font-family="Arial" font-size="14.00" fill="#666666">[TEXT]</text>
<polygon fill="none" stroke="black" points="1704.14,-1006 1704.14,-1036.8 1916.99,-1036.8 1916.99,-1006 1704.14,-1006"/>
<text text-anchor="start" x="1711.14" y="-1018.2" font-family="Arial" font-size="14.00">name </text>
<text text-anchor="start" x="1750.05" y="-1018.2" font-family="Arial" font-size="14.00" fill="#666666">[TEXT]</text>
<polygon fill="none" stroke="black" points="1704.14,-975.2 1704.14,-1006 1916.99,-1006 1916.99,-975.2 1704.14,-975.2"/>
<text text-anchor="start" x="1711.14" y="-987.4" font-family="Arial" font-size="14.00">value </text>
<text text-anchor="start" x="1748.5" y="-987.4" font-family="Arial" font-size="14.00" fill="#666666">[TEXT]</text>
<polygon fill="none" stroke="black" points="1704.14,-944.4 1704.14,-975.2 1916.99,-975.2 1916.99,-944.4 1704.14,-944.4"/>
<text text-anchor="start" x="1711.14" y="-956.6" font-family="Arial" font-size="14.00">comment </text>
<text text-anchor="start" x="1772.6" y="-956.6" font-family="Arial" font-size="14.00" fill="#666666">[TEXT]</text>
<polygon fill="none" stroke="black" points="1704.14,-913.6 1704.14,-944.4 1916.99,-944.4 1916.99,-913.6 1704.14,-913.6"/>
<text text-anchor="start" x="1711.14" y="-925.8" font-family="Arial" font-size="14.00">create_time </text>
<text text-anchor="start" x="1788.17" y="-925.8" font-family="Arial" font-size="14.00" fill="#666666">[TEXT]</text>
<polygon fill="none" stroke="black" points="1704.14,-882.8 1704.14,-913.6 1916.99,-913.6 1916.99,-882.8 1704.14,-882.8"/>
<text text-anchor="start" x="1711.14" y="-895" font-family="Arial" font-size="14.00">update_time </text>
<text text-anchor="start" x="1792.08" y="-895" font-family="Arial" font-size="14.00" fill="#666666">[TEXT]</text>
<polygon fill="none" stroke="black" points="1704.14,-852 1704.14,-882.8 1916.99,-882.8 1916.99,-852 1704.14,-852"/>
<text text-anchor="start" x="1711.14" y="-864.2" font-family="Arial" font-size="14.00">enabled </text>
<text text-anchor="start" x="1764.86" y="-864.2" font-family="Arial" font-size="14.00" fill="#666666">[INTEGER]</text>
<polygon fill="none" stroke="black" points="1704.14,-821.2 1704.14,-852 1916.99,-852 1916.99,-821.2 1704.14,-821.2"/>
<text text-anchor="start" x="1711.14" y="-833.4" font-family="Arial" font-size="14.00">completions </text>
<text text-anchor="start" x="1789.73" y="-833.4" font-family="Arial" font-size="14.00" fill="#666666">[TEXT]</text>
</g>
</g>
</svg>
