<?xml version="1.0" encoding="UTF-8" standalone="no"?>
<!DOCTYPE svg PUBLIC "-//W3C//DTD SVG 1.1//EN"
 "http://www.w3.org/Graphics/SVG/1.1/DTD/svg11.dtd">
<!-- Generated by graphviz version 12.1.2 (20240928.0832)
 -->
<!-- Title: var Pages: 1 -->
<svg width="274pt" height="1160pt"
 viewBox="0.00 0.00 274.19 1160.40" xmlns="http://www.w3.org/2000/svg" xmlns:xlink="http://www.w3.org/1999/xlink">
<g id="graph0" class="graph" transform="scale(1 1) rotate(0) translate(4 1156.4)">
<title>var</title>
<polygon fill="white" stroke="none" points="-4,4 -4,-1156.4 270.19,-1156.4 270.19,4 -4,4"/>
<!-- var -->
<g id="node1" class="node">
<title>var</title>
<polygon fill="#efefef" stroke="none" points="49.02,-666.2 49.02,-701.8 187.53,-701.8 187.53,-666.2 49.02,-666.2"/>
<polygon fill="none" stroke="black" points="49.02,-666.2 49.02,-701.8 187.53,-701.8 187.53,-666.2 49.02,-666.2"/>
<text text-anchor="start" x="72.16" y="-679.6" font-family="Arial Bold" font-size="18.00">var</text>
<text text-anchor="start" x="95.14" y="-679.6" font-family="Arial" font-size="14.00">    </text>
<text text-anchor="start" x="126.26" y="-679.6" font-family="Arial" font-size="14.00" fill="#666666">[table]</text>
<polygon fill="none" stroke="black" points="49.02,-635.4 49.02,-666.2 187.53,-666.2 187.53,-635.4 49.02,-635.4"/>
<text text-anchor="start" x="56.02" y="-647.6" font-family="Arial" font-size="14.00">var_id </text>
<text text-anchor="start" x="98.04" y="-647.6" font-family="Arial" font-size="14.00" fill="#666666">[INTEGER]</text>
<polygon fill="none" stroke="black" points="49.02,-604.6 49.02,-635.4 187.53,-635.4 187.53,-604.6 49.02,-604.6"/>
<text text-anchor="start" x="56.02" y="-616.8" font-family="Arial" font-size="14.00">env_id </text>
<text text-anchor="start" x="101.17" y="-616.8" font-family="Arial" font-size="14.00" fill="#666666">[INTEGER]</text>
<polygon fill="none" stroke="black" points="49.02,-573.8 49.02,-604.6 187.53,-604.6 187.53,-573.8 49.02,-573.8"/>
<text text-anchor="start" x="56.02" y="-586" font-family="Arial" font-size="14.00">name </text>
<text text-anchor="start" x="94.93" y="-586" font-family="Arial" font-size="14.00" fill="#666666">[TEXT]</text>
<polygon fill="none" stroke="black" points="49.02,-543 49.02,-573.8 187.53,-573.8 187.53,-543 49.02,-543"/>
<text text-anchor="start" x="56.02" y="-555.2" font-family="Arial" font-size="14.00">comment </text>
<text text-anchor="start" x="117.49" y="-555.2" font-family="Arial" font-size="14.00" fill="#666666">[TEXT]</text>
<polygon fill="none" stroke="black" points="49.02,-512.2 49.02,-543 187.53,-543 187.53,-512.2 49.02,-512.2"/>
<text text-anchor="start" x="56.02" y="-524.4" font-family="Arial" font-size="14.00">create_time </text>
<text text-anchor="start" x="133.06" y="-524.4" font-family="Arial" font-size="14.00" fill="#666666">[TEXT]</text>
<polygon fill="none" stroke="black" points="49.02,-481.4 49.02,-512.2 187.53,-512.2 187.53,-481.4 49.02,-481.4"/>
<text text-anchor="start" x="56.02" y="-493.6" font-family="Arial" font-size="14.00">update_time </text>
<text text-anchor="start" x="136.97" y="-493.6" font-family="Arial" font-size="14.00" fill="#666666">[TEXT]</text>
<polygon fill="none" stroke="black" points="49.02,-450.6 49.02,-481.4 187.53,-481.4 187.53,-450.6 49.02,-450.6"/>
<text text-anchor="start" x="56.02" y="-462.8" font-family="Arial" font-size="14.00">value </text>
<text text-anchor="start" x="93.38" y="-462.8" font-family="Arial" font-size="14.00" fill="#666666">[TEXT]</text>
<polygon fill="none" stroke="black" points="49.02,-419.8 49.02,-450.6 187.53,-450.6 187.53,-419.8 49.02,-419.8"/>
<text text-anchor="start" x="56.02" y="-432" font-family="Arial" font-size="14.00">enabled </text>
<text text-anchor="start" x="109.74" y="-432" font-family="Arial" font-size="14.00" fill="#666666">[INTEGER]</text>
<polygon fill="none" stroke="black" points="49.02,-389 49.02,-419.8 187.53,-419.8 187.53,-389 49.02,-389"/>
<text text-anchor="start" x="56.02" y="-401.2" font-family="Arial" font-size="14.00">completions </text>
<text text-anchor="start" x="134.62" y="-401.2" font-family="Arial" font-size="14.00" fill="#666666">[TEXT]</text>
<polygon fill="none" stroke="black" stroke-width="3" points="47.52,-387.5 47.52,-703.3 189.03,-703.3 189.03,-387.5 47.52,-387.5"/>
</g>
<!-- env -->
<g id="node3" class="node">
<title>env</title>
<polygon fill="#efefef" stroke="none" points="49.02,-228 49.02,-263.6 187.53,-263.6 187.53,-228 49.02,-228"/>
<polygon fill="none" stroke="black" points="49.02,-228 49.02,-263.6 187.53,-263.6 187.53,-228 49.02,-228"/>
<text text-anchor="start" x="70.65" y="-241.4" font-family="Arial Bold" font-size="18.00">env</text>
<text text-anchor="start" x="96.64" y="-241.4" font-family="Arial" font-size="14.00">    </text>
<text text-anchor="start" x="127.76" y="-241.4" font-family="Arial" font-size="14.00" fill="#666666">[table]</text>
<polygon fill="none" stroke="black" points="49.02,-197.2 49.02,-228 187.53,-228 187.53,-197.2 49.02,-197.2"/>
<text text-anchor="start" x="56.02" y="-209.4" font-family="Arial" font-size="14.00">env_id </text>
<text text-anchor="start" x="101.17" y="-209.4" font-family="Arial" font-size="14.00" fill="#666666">[INTEGER]</text>
<polygon fill="none" stroke="black" points="49.02,-166.4 49.02,-197.2 187.53,-197.2 187.53,-166.4 49.02,-166.4"/>
<text text-anchor="start" x="56.02" y="-178.6" font-family="Arial" font-size="14.00">name </text>
<text text-anchor="start" x="94.93" y="-178.6" font-family="Arial" font-size="14.00" fill="#666666">[TEXT]</text>
<polygon fill="none" stroke="black" points="49.02,-135.6 49.02,-166.4 187.53,-166.4 187.53,-135.6 49.02,-135.6"/>
<text text-anchor="start" x="56.02" y="-147.8" font-family="Arial" font-size="14.00">comment </text>
<text text-anchor="start" x="117.49" y="-147.8" font-family="Arial" font-size="14.00" fill="#666666">[TEXT]</text>
<polygon fill="none" stroke="black" points="49.02,-104.8 49.02,-135.6 187.53,-135.6 187.53,-104.8 49.02,-104.8"/>
<text text-anchor="start" x="56.02" y="-117" font-family="Arial" font-size="14.00">create_time </text>
<text text-anchor="start" x="133.06" y="-117" font-family="Arial" font-size="14.00" fill="#666666">[TEXT]</text>
<polygon fill="none" stroke="black" points="49.02,-74 49.02,-104.8 187.53,-104.8 187.53,-74 49.02,-74"/>
<text text-anchor="start" x="56.02" y="-86.2" font-family="Arial" font-size="14.00">update_time </text>
<text text-anchor="start" x="136.97" y="-86.2" font-family="Arial" font-size="14.00" fill="#666666">[TEXT]</text>
<polygon fill="none" stroke="black" points="49.02,-43.2 49.02,-74 187.53,-74 187.53,-43.2 49.02,-43.2"/>
<text text-anchor="start" x="56.02" y="-55.4" font-family="Arial" font-size="14.00">enabled </text>
<text text-anchor="start" x="109.74" y="-55.4" font-family="Arial" font-size="14.00" fill="#666666">[INTEGER]</text>
</g>
<!-- var&#45;&gt;env -->
<g id="edge2" class="edge">
<title>var:env_id&#45;&gt;env:env_id</title>
<path fill="none" stroke="black" d="M198.72,-618.18C278.92,-588.79 275.52,-212.6 188.53,-212.6"/>
<polygon fill="black" stroke="black" points="198.7,-618.19 188.07,-615.51 193.45,-619.12 189.19,-619.88 189.19,-619.88 189.19,-619.88 193.45,-619.12 189.65,-624.37 198.7,-618.19"/>
</g>
<!-- var_ref -->
<g id="node2" class="node">
<title>var_ref</title>
<polygon fill="#efefef" stroke="none" points="43.2,-1073.6 43.2,-1109.2 193.35,-1109.2 193.35,-1073.6 43.2,-1073.6"/>
<polygon fill="none" stroke="black" points="43.2,-1073.6 43.2,-1109.2 193.35,-1109.2 193.35,-1073.6 43.2,-1073.6"/>
<text text-anchor="start" x="57.67" y="-1087" font-family="Arial Bold" font-size="18.00">var_ref</text>
<text text-anchor="start" x="109.63" y="-1087" font-family="Arial" font-size="14.00">    </text>
<text text-anchor="start" x="140.75" y="-1087" font-family="Arial" font-size="14.00" fill="#666666">[table]</text>
<polygon fill="none" stroke="black" points="43.2,-1042.8 43.2,-1073.6 193.35,-1073.6 193.35,-1042.8 43.2,-1042.8"/>
<text text-anchor="start" x="50.2" y="-1055" font-family="Arial" font-size="14.00">var_ref_id </text>
<text text-anchor="start" x="116.34" y="-1055" font-family="Arial" font-size="14.00" fill="#666666">[INTEGER]</text>
<polygon fill="none" stroke="black" points="43.2,-1012 43.2,-1042.8 193.35,-1042.8 193.35,-1012 43.2,-1012"/>
<text text-anchor="start" x="50.2" y="-1024.2" font-family="Arial" font-size="14.00">env_id </text>
<text text-anchor="start" x="95.34" y="-1024.2" font-family="Arial" font-size="14.00" fill="#666666">[INTEGER]</text>
<polygon fill="none" stroke="black" points="43.2,-981.2 43.2,-1012 193.35,-1012 193.35,-981.2 43.2,-981.2"/>
<text text-anchor="start" x="50.2" y="-993.4" font-family="Arial" font-size="14.00">name </text>
<text text-anchor="start" x="89.11" y="-993.4" font-family="Arial" font-size="14.00" fill="#666666">[TEXT]</text>
<polygon fill="none" stroke="black" points="43.2,-950.4 43.2,-981.2 193.35,-981.2 193.35,-950.4 43.2,-950.4"/>
<text text-anchor="start" x="50.2" y="-962.6" font-family="Arial" font-size="14.00">comment </text>
<text text-anchor="start" x="111.66" y="-962.6" font-family="Arial" font-size="14.00" fill="#666666">[TEXT]</text>
<polygon fill="none" stroke="black" points="43.2,-919.6 43.2,-950.4 193.35,-950.4 193.35,-919.6 43.2,-919.6"/>
<text text-anchor="start" x="50.2" y="-931.8" font-family="Arial" font-size="14.00">create_time </text>
<text text-anchor="start" x="127.23" y="-931.8" font-family="Arial" font-size="14.00" fill="#666666">[TEXT]</text>
<polygon fill="none" stroke="black" points="43.2,-888.8 43.2,-919.6 193.35,-919.6 193.35,-888.8 43.2,-888.8"/>
<text text-anchor="start" x="50.2" y="-901" font-family="Arial" font-size="14.00">update_time </text>
<text text-anchor="start" x="131.14" y="-901" font-family="Arial" font-size="14.00" fill="#666666">[TEXT]</text>
<polygon fill="none" stroke="black" points="43.2,-858 43.2,-888.8 193.35,-888.8 193.35,-858 43.2,-858"/>
<text text-anchor="start" x="50.2" y="-870.2" font-family="Arial" font-size="14.00">var_id </text>
<text text-anchor="start" x="92.22" y="-870.2" font-family="Arial" font-size="14.00" fill="#666666">[INTEGER]</text>
<polygon fill="none" stroke="black" points="43.2,-827.2 43.2,-858 193.35,-858 193.35,-827.2 43.2,-827.2"/>
<text text-anchor="start" x="50.2" y="-839.4" font-family="Arial" font-size="14.00">enabled </text>
<text text-anchor="start" x="103.92" y="-839.4" font-family="Arial" font-size="14.00" fill="#666666">[INTEGER]</text>
</g>
<!-- var_ref&#45;&gt;var -->
<g id="edge1" class="edge">
<title>var_ref:var_id&#45;&gt;var:var_id</title>
<path fill="none" stroke="black" d="M204.67,-872.55C292.78,-857.6 283.92,-650.8 188.53,-650.8"/>
<polygon fill="black" stroke="black" points="204.65,-872.55 194.31,-868.89 199.33,-872.99 195.02,-873.35 195.02,-873.35 195.02,-873.35 199.33,-872.99 195.05,-877.86 204.65,-872.55"/>
</g>
</g>
</svg>
