<?xml version="1.0" encoding="UTF-8" standalone="no"?>
<!DOCTYPE svg PUBLIC "-//W3C//DTD SVG 1.1//EN"
 "http://www.w3.org/Graphics/SVG/1.1/DTD/svg11.dtd">
<!-- Generated by graphviz version 12.1.2 (20240928.0832)
 -->
<!-- Title: var_ref Pages: 1 -->
<svg width="476pt" height="818pt"
 viewBox="0.00 0.00 475.90 817.60" xmlns="http://www.w3.org/2000/svg" xmlns:xlink="http://www.w3.org/1999/xlink">
<g id="graph0" class="graph" transform="scale(1 1) rotate(0) translate(4 813.6)">
<title>var_ref</title>
<polygon fill="white" stroke="none" points="-4,4 -4,-813.6 471.9,-813.6 471.9,4 -4,4"/>
<!-- var_ref -->
<g id="node1" class="node">
<title>var_ref</title>
<polygon fill="#efefef" stroke="none" points="158.38,-727.8 158.38,-763.4 308.53,-763.4 308.53,-727.8 158.38,-727.8"/>
<polygon fill="none" stroke="black" points="158.38,-727.8 158.38,-763.4 308.53,-763.4 308.53,-727.8 158.38,-727.8"/>
<text text-anchor="start" x="172.84" y="-741.2" font-family="Arial Bold" font-size="18.00">var_ref</text>
<text text-anchor="start" x="224.8" y="-741.2" font-family="Arial" font-size="14.00">    </text>
<text text-anchor="start" x="255.92" y="-741.2" font-family="Arial" font-size="14.00" fill="#666666">[table]</text>
<polygon fill="none" stroke="black" points="158.38,-697 158.38,-727.8 308.53,-727.8 308.53,-697 158.38,-697"/>
<text text-anchor="start" x="165.38" y="-709.2" font-family="Arial" font-size="14.00">var_ref_id </text>
<text text-anchor="start" x="231.52" y="-709.2" font-family="Arial" font-size="14.00" fill="#666666">[INTEGER]</text>
<polygon fill="none" stroke="black" points="158.38,-666.2 158.38,-697 308.53,-697 308.53,-666.2 158.38,-666.2"/>
<text text-anchor="start" x="165.38" y="-678.4" font-family="Arial" font-size="14.00">env_id </text>
<text text-anchor="start" x="210.52" y="-678.4" font-family="Arial" font-size="14.00" fill="#666666">[INTEGER]</text>
<polygon fill="none" stroke="black" points="158.38,-635.4 158.38,-666.2 308.53,-666.2 308.53,-635.4 158.38,-635.4"/>
<text text-anchor="start" x="165.38" y="-647.6" font-family="Arial" font-size="14.00">name </text>
<text text-anchor="start" x="204.29" y="-647.6" font-family="Arial" font-size="14.00" fill="#666666">[TEXT]</text>
<polygon fill="none" stroke="black" points="158.38,-604.6 158.38,-635.4 308.53,-635.4 308.53,-604.6 158.38,-604.6"/>
<text text-anchor="start" x="165.38" y="-616.8" font-family="Arial" font-size="14.00">comment </text>
<text text-anchor="start" x="226.84" y="-616.8" font-family="Arial" font-size="14.00" fill="#666666">[TEXT]</text>
<polygon fill="none" stroke="black" points="158.38,-573.8 158.38,-604.6 308.53,-604.6 308.53,-573.8 158.38,-573.8"/>
<text text-anchor="start" x="165.38" y="-586" font-family="Arial" font-size="14.00">create_time </text>
<text text-anchor="start" x="242.41" y="-586" font-family="Arial" font-size="14.00" fill="#666666">[TEXT]</text>
<polygon fill="none" stroke="black" points="158.38,-543 158.38,-573.8 308.53,-573.8 308.53,-543 158.38,-543"/>
<text text-anchor="start" x="165.38" y="-555.2" font-family="Arial" font-size="14.00">update_time </text>
<text text-anchor="start" x="246.32" y="-555.2" font-family="Arial" font-size="14.00" fill="#666666">[TEXT]</text>
<polygon fill="none" stroke="black" points="158.38,-512.2 158.38,-543 308.53,-543 308.53,-512.2 158.38,-512.2"/>
<text text-anchor="start" x="165.38" y="-524.4" font-family="Arial" font-size="14.00">var_id </text>
<text text-anchor="start" x="207.4" y="-524.4" font-family="Arial" font-size="14.00" fill="#666666">[INTEGER]</text>
<polygon fill="none" stroke="black" points="158.38,-481.4 158.38,-512.2 308.53,-512.2 308.53,-481.4 158.38,-481.4"/>
<text text-anchor="start" x="165.38" y="-493.6" font-family="Arial" font-size="14.00">enabled </text>
<text text-anchor="start" x="219.09" y="-493.6" font-family="Arial" font-size="14.00" fill="#666666">[INTEGER]</text>
<polygon fill="none" stroke="black" stroke-width="3" points="156.88,-479.9 156.88,-764.9 310.03,-764.9 310.03,-479.9 156.88,-479.9"/>
</g>
<!-- env -->
<g id="node2" class="node">
<title>env</title>
<polygon fill="#efefef" stroke="none" points="43.2,-274.2 43.2,-309.8 181.7,-309.8 181.7,-274.2 43.2,-274.2"/>
<polygon fill="none" stroke="black" points="43.2,-274.2 43.2,-309.8 181.7,-309.8 181.7,-274.2 43.2,-274.2"/>
<text text-anchor="start" x="64.83" y="-287.6" font-family="Arial Bold" font-size="18.00">env</text>
<text text-anchor="start" x="90.82" y="-287.6" font-family="Arial" font-size="14.00">    </text>
<text text-anchor="start" x="121.94" y="-287.6" font-family="Arial" font-size="14.00" fill="#666666">[table]</text>
<polygon fill="none" stroke="black" points="43.2,-243.4 43.2,-274.2 181.7,-274.2 181.7,-243.4 43.2,-243.4"/>
<text text-anchor="start" x="50.2" y="-255.6" font-family="Arial" font-size="14.00">env_id </text>
<text text-anchor="start" x="95.34" y="-255.6" font-family="Arial" font-size="14.00" fill="#666666">[INTEGER]</text>
<polygon fill="none" stroke="black" points="43.2,-212.6 43.2,-243.4 181.7,-243.4 181.7,-212.6 43.2,-212.6"/>
<text text-anchor="start" x="50.2" y="-224.8" font-family="Arial" font-size="14.00">name </text>
<text text-anchor="start" x="89.11" y="-224.8" font-family="Arial" font-size="14.00" fill="#666666">[TEXT]</text>
<polygon fill="none" stroke="black" points="43.2,-181.8 43.2,-212.6 181.7,-212.6 181.7,-181.8 43.2,-181.8"/>
<text text-anchor="start" x="50.2" y="-194" font-family="Arial" font-size="14.00">comment </text>
<text text-anchor="start" x="111.66" y="-194" font-family="Arial" font-size="14.00" fill="#666666">[TEXT]</text>
<polygon fill="none" stroke="black" points="43.2,-151 43.2,-181.8 181.7,-181.8 181.7,-151 43.2,-151"/>
<text text-anchor="start" x="50.2" y="-163.2" font-family="Arial" font-size="14.00">create_time </text>
<text text-anchor="start" x="127.23" y="-163.2" font-family="Arial" font-size="14.00" fill="#666666">[TEXT]</text>
<polygon fill="none" stroke="black" points="43.2,-120.2 43.2,-151 181.7,-151 181.7,-120.2 43.2,-120.2"/>
<text text-anchor="start" x="50.2" y="-132.4" font-family="Arial" font-size="14.00">update_time </text>
<text text-anchor="start" x="131.14" y="-132.4" font-family="Arial" font-size="14.00" fill="#666666">[TEXT]</text>
<polygon fill="none" stroke="black" points="43.2,-89.4 43.2,-120.2 181.7,-120.2 181.7,-89.4 43.2,-89.4"/>
<text text-anchor="start" x="50.2" y="-101.6" font-family="Arial" font-size="14.00">enabled </text>
<text text-anchor="start" x="103.92" y="-101.6" font-family="Arial" font-size="14.00" fill="#666666">[INTEGER]</text>
</g>
<!-- var_ref&#45;&gt;env -->
<g id="edge1" class="edge">
<title>var_ref:env_id&#45;&gt;env:env_id</title>
<path fill="none" stroke="black" d="M147.13,-681.15C54.1,-672.47 143.57,-540.04 158.38,-435.2 163.69,-397.6 176.27,-390.59 181.7,-353 187.69,-311.56 224.57,-258.8 182.7,-258.8"/>
<polygon fill="black" stroke="black" points="147.05,-681.15 156.84,-686.08 152.38,-681.38 156.71,-681.57 156.71,-681.57 156.71,-681.57 152.38,-681.38 157.24,-677.09 147.05,-681.15"/>
</g>
<!-- var -->
<g id="node3" class="node">
<title>var</title>
<polygon fill="#efefef" stroke="none" points="286.2,-320.4 286.2,-356 424.7,-356 424.7,-320.4 286.2,-320.4"/>
<polygon fill="none" stroke="black" points="286.2,-320.4 286.2,-356 424.7,-356 424.7,-320.4 286.2,-320.4"/>
<text text-anchor="start" x="309.33" y="-333.8" font-family="Arial Bold" font-size="18.00">var</text>
<text text-anchor="start" x="332.32" y="-333.8" font-family="Arial" font-size="14.00">    </text>
<text text-anchor="start" x="363.43" y="-333.8" font-family="Arial" font-size="14.00" fill="#666666">[table]</text>
<polygon fill="none" stroke="black" points="286.2,-289.6 286.2,-320.4 424.7,-320.4 424.7,-289.6 286.2,-289.6"/>
<text text-anchor="start" x="293.2" y="-301.8" font-family="Arial" font-size="14.00">var_id </text>
<text text-anchor="start" x="335.22" y="-301.8" font-family="Arial" font-size="14.00" fill="#666666">[INTEGER]</text>
<polygon fill="none" stroke="black" points="286.2,-258.8 286.2,-289.6 424.7,-289.6 424.7,-258.8 286.2,-258.8"/>
<text text-anchor="start" x="293.2" y="-271" font-family="Arial" font-size="14.00">env_id </text>
<text text-anchor="start" x="338.34" y="-271" font-family="Arial" font-size="14.00" fill="#666666">[INTEGER]</text>
<polygon fill="none" stroke="black" points="286.2,-228 286.2,-258.8 424.7,-258.8 424.7,-228 286.2,-228"/>
<text text-anchor="start" x="293.2" y="-240.2" font-family="Arial" font-size="14.00">name </text>
<text text-anchor="start" x="332.11" y="-240.2" font-family="Arial" font-size="14.00" fill="#666666">[TEXT]</text>
<polygon fill="none" stroke="black" points="286.2,-197.2 286.2,-228 424.7,-228 424.7,-197.2 286.2,-197.2"/>
<text text-anchor="start" x="293.2" y="-209.4" font-family="Arial" font-size="14.00">comment </text>
<text text-anchor="start" x="354.66" y="-209.4" font-family="Arial" font-size="14.00" fill="#666666">[TEXT]</text>
<polygon fill="none" stroke="black" points="286.2,-166.4 286.2,-197.2 424.7,-197.2 424.7,-166.4 286.2,-166.4"/>
<text text-anchor="start" x="293.2" y="-178.6" font-family="Arial" font-size="14.00">create_time </text>
<text text-anchor="start" x="370.23" y="-178.6" font-family="Arial" font-size="14.00" fill="#666666">[TEXT]</text>
<polygon fill="none" stroke="black" points="286.2,-135.6 286.2,-166.4 424.7,-166.4 424.7,-135.6 286.2,-135.6"/>
<text text-anchor="start" x="293.2" y="-147.8" font-family="Arial" font-size="14.00">update_time </text>
<text text-anchor="start" x="374.14" y="-147.8" font-family="Arial" font-size="14.00" fill="#666666">[TEXT]</text>
<polygon fill="none" stroke="black" points="286.2,-104.8 286.2,-135.6 424.7,-135.6 424.7,-104.8 286.2,-104.8"/>
<text text-anchor="start" x="293.2" y="-117" font-family="Arial" font-size="14.00">value </text>
<text text-anchor="start" x="330.56" y="-117" font-family="Arial" font-size="14.00" fill="#666666">[TEXT]</text>
<polygon fill="none" stroke="black" points="286.2,-74 286.2,-104.8 424.7,-104.8 424.7,-74 286.2,-74"/>
<text text-anchor="start" x="293.2" y="-86.2" font-family="Arial" font-size="14.00">enabled </text>
<text text-anchor="start" x="346.92" y="-86.2" font-family="Arial" font-size="14.00" fill="#666666">[INTEGER]</text>
<polygon fill="none" stroke="black" points="286.2,-43.2 286.2,-74 424.7,-74 424.7,-43.2 286.2,-43.2"/>
<text text-anchor="start" x="293.2" y="-55.4" font-family="Arial" font-size="14.00">completions </text>
<text text-anchor="start" x="371.79" y="-55.4" font-family="Arial" font-size="14.00" fill="#666666">[TEXT]</text>
</g>
<!-- var_ref&#45;&gt;var -->
<g id="edge2" class="edge">
<title>var_ref:var_id&#45;&gt;var:var_id</title>
<path fill="none" stroke="black" d="M319.59,-526.15C344.8,-517.38 318.87,-470.78 308.53,-435.2 303.27,-417.12 291.46,-417.28 286.2,-399.2 274.51,-359 243.33,-305 285.2,-305"/>
<polygon fill="black" stroke="black" points="319.76,-526.12 309.22,-523.1 314.48,-526.89 310.19,-527.5 310.19,-527.5 310.19,-527.5 314.48,-526.89 310.5,-532.01 319.76,-526.12"/>
</g>
</g>
</svg>
