<?xml version="1.0" encoding="UTF-8" standalone="no"?>
<!DOCTYPE svg PUBLIC "-//W3C//DTD SVG 1.1//EN"
 "http://www.w3.org/Graphics/SVG/1.1/DTD/svg11.dtd">
<!-- Generated by graphviz version 12.1.2 (20240928.0832)
 -->
<!-- Title: var_ref Pages: 1 -->
<svg width="476pt" height="787pt"
 viewBox="0.00 0.00 475.90 786.80" xmlns="http://www.w3.org/2000/svg" xmlns:xlink="http://www.w3.org/1999/xlink">
<g id="graph0" class="graph" transform="scale(1 1) rotate(0) translate(4 782.8)">
<title>var_ref</title>
<polygon fill="white" stroke="none" points="-4,4 -4,-782.8 471.9,-782.8 471.9,4 -4,4"/>
<!-- var_ref -->
<g id="node1" class="node">
<title>var_ref</title>
<polygon fill="#efefef" stroke="none" points="158.38,-697 158.38,-732.6 308.53,-732.6 308.53,-697 158.38,-697"/>
<polygon fill="none" stroke="black" points="158.38,-697 158.38,-732.6 308.53,-732.6 308.53,-697 158.38,-697"/>
<text text-anchor="start" x="172.84" y="-710.4" font-family="Arial Bold" font-size="18.00">var_ref</text>
<text text-anchor="start" x="224.8" y="-710.4" font-family="Arial" font-size="14.00">    </text>
<text text-anchor="start" x="255.92" y="-710.4" font-family="Arial" font-size="14.00" fill="#666666">[table]</text>
<polygon fill="none" stroke="black" points="158.38,-666.2 158.38,-697 308.53,-697 308.53,-666.2 158.38,-666.2"/>
<text text-anchor="start" x="165.38" y="-678.4" font-family="Arial" font-size="14.00">var_ref_id </text>
<text text-anchor="start" x="231.52" y="-678.4" font-family="Arial" font-size="14.00" fill="#666666">[INTEGER]</text>
<polygon fill="none" stroke="black" points="158.38,-635.4 158.38,-666.2 308.53,-666.2 308.53,-635.4 158.38,-635.4"/>
<text text-anchor="start" x="165.38" y="-647.6" font-family="Arial" font-size="14.00">env_id </text>
<text text-anchor="start" x="210.52" y="-647.6" font-family="Arial" font-size="14.00" fill="#666666">[INTEGER]</text>
<polygon fill="none" stroke="black" points="158.38,-604.6 158.38,-635.4 308.53,-635.4 308.53,-604.6 158.38,-604.6"/>
<text text-anchor="start" x="165.38" y="-616.8" font-family="Arial" font-size="14.00">name </text>
<text text-anchor="start" x="204.29" y="-616.8" font-family="Arial" font-size="14.00" fill="#666666">[TEXT]</text>
<polygon fill="none" stroke="black" points="158.38,-573.8 158.38,-604.6 308.53,-604.6 308.53,-573.8 158.38,-573.8"/>
<text text-anchor="start" x="165.38" y="-586" font-family="Arial" font-size="14.00">comment </text>
<text text-anchor="start" x="226.84" y="-586" font-family="Arial" font-size="14.00" fill="#666666">[TEXT]</text>
<polygon fill="none" stroke="black" points="158.38,-543 158.38,-573.8 308.53,-573.8 308.53,-543 158.38,-543"/>
<text text-anchor="start" x="165.38" y="-555.2" font-family="Arial" font-size="14.00">create_time </text>
<text text-anchor="start" x="242.41" y="-555.2" font-family="Arial" font-size="14.00" fill="#666666">[TEXT]</text>
<polygon fill="none" stroke="black" points="158.38,-512.2 158.38,-543 308.53,-543 308.53,-512.2 158.38,-512.2"/>
<text text-anchor="start" x="165.38" y="-524.4" font-family="Arial" font-size="14.00">update_time </text>
<text text-anchor="start" x="246.32" y="-524.4" font-family="Arial" font-size="14.00" fill="#666666">[TEXT]</text>
<polygon fill="none" stroke="black" points="158.38,-481.4 158.38,-512.2 308.53,-512.2 308.53,-481.4 158.38,-481.4"/>
<text text-anchor="start" x="165.38" y="-493.6" font-family="Arial" font-size="14.00">var_id </text>
<text text-anchor="start" x="207.4" y="-493.6" font-family="Arial" font-size="14.00" fill="#666666">[INTEGER]</text>
<polygon fill="none" stroke="black" points="158.38,-450.6 158.38,-481.4 308.53,-481.4 308.53,-450.6 158.38,-450.6"/>
<text text-anchor="start" x="165.38" y="-462.8" font-family="Arial" font-size="14.00">enabled </text>
<text text-anchor="start" x="219.09" y="-462.8" font-family="Arial" font-size="14.00" fill="#666666">[INTEGER]</text>
<polygon fill="none" stroke="black" stroke-width="3" points="156.88,-449.1 156.88,-734.1 310.03,-734.1 310.03,-449.1 156.88,-449.1"/>
</g>
<!-- env -->
<g id="node2" class="node">
<title>env</title>
<polygon fill="#efefef" stroke="none" points="43.2,-258.8 43.2,-294.4 181.7,-294.4 181.7,-258.8 43.2,-258.8"/>
<polygon fill="none" stroke="black" points="43.2,-258.8 43.2,-294.4 181.7,-294.4 181.7,-258.8 43.2,-258.8"/>
<text text-anchor="start" x="64.83" y="-272.2" font-family="Arial Bold" font-size="18.00">env</text>
<text text-anchor="start" x="90.82" y="-272.2" font-family="Arial" font-size="14.00">    </text>
<text text-anchor="start" x="121.94" y="-272.2" font-family="Arial" font-size="14.00" fill="#666666">[table]</text>
<polygon fill="none" stroke="black" points="43.2,-228 43.2,-258.8 181.7,-258.8 181.7,-228 43.2,-228"/>
<text text-anchor="start" x="50.2" y="-240.2" font-family="Arial" font-size="14.00">env_id </text>
<text text-anchor="start" x="95.34" y="-240.2" font-family="Arial" font-size="14.00" fill="#666666">[INTEGER]</text>
<polygon fill="none" stroke="black" points="43.2,-197.2 43.2,-228 181.7,-228 181.7,-197.2 43.2,-197.2"/>
<text text-anchor="start" x="50.2" y="-209.4" font-family="Arial" font-size="14.00">name </text>
<text text-anchor="start" x="89.11" y="-209.4" font-family="Arial" font-size="14.00" fill="#666666">[TEXT]</text>
<polygon fill="none" stroke="black" points="43.2,-166.4 43.2,-197.2 181.7,-197.2 181.7,-166.4 43.2,-166.4"/>
<text text-anchor="start" x="50.2" y="-178.6" font-family="Arial" font-size="14.00">comment </text>
<text text-anchor="start" x="111.66" y="-178.6" font-family="Arial" font-size="14.00" fill="#666666">[TEXT]</text>
<polygon fill="none" stroke="black" points="43.2,-135.6 43.2,-166.4 181.7,-166.4 181.7,-135.6 43.2,-135.6"/>
<text text-anchor="start" x="50.2" y="-147.8" font-family="Arial" font-size="14.00">create_time </text>
<text text-anchor="start" x="127.23" y="-147.8" font-family="Arial" font-size="14.00" fill="#666666">[TEXT]</text>
<polygon fill="none" stroke="black" points="43.2,-104.8 43.2,-135.6 181.7,-135.6 181.7,-104.8 43.2,-104.8"/>
<text text-anchor="start" x="50.2" y="-117" font-family="Arial" font-size="14.00">update_time </text>
<text text-anchor="start" x="131.14" y="-117" font-family="Arial" font-size="14.00" fill="#666666">[TEXT]</text>
<polygon fill="none" stroke="black" points="43.2,-74 43.2,-104.8 181.7,-104.8 181.7,-74 43.2,-74"/>
<text text-anchor="start" x="50.2" y="-86.2" font-family="Arial" font-size="14.00">enabled </text>
<text text-anchor="start" x="103.92" y="-86.2" font-family="Arial" font-size="14.00" fill="#666666">[INTEGER]</text>
</g>
<!-- var_ref&#45;&gt;env -->
<g id="edge1" class="edge">
<title>var_ref:env_id&#45;&gt;env:env_id</title>
<path fill="none" stroke="black" d="M147.12,-650.35C53.89,-641.64 140.46,-508.75 158.38,-404.4 163.7,-373.41 176.28,-368.58 181.7,-337.6 188.92,-296.36 224.57,-243.4 182.7,-243.4"/>
<polygon fill="black" stroke="black" points="147.05,-650.34 156.84,-655.28 152.38,-650.58 156.71,-650.77 156.71,-650.77 156.71,-650.77 152.38,-650.58 157.24,-646.29 147.05,-650.34"/>
</g>
<!-- var -->
<g id="node3" class="node">
<title>var</title>
<polygon fill="#efefef" stroke="none" points="286.2,-289.6 286.2,-325.2 424.7,-325.2 424.7,-289.6 286.2,-289.6"/>
<polygon fill="none" stroke="black" points="286.2,-289.6 286.2,-325.2 424.7,-325.2 424.7,-289.6 286.2,-289.6"/>
<text text-anchor="start" x="309.33" y="-303" font-family="Arial Bold" font-size="18.00">var</text>
<text text-anchor="start" x="332.32" y="-303" font-family="Arial" font-size="14.00">    </text>
<text text-anchor="start" x="363.43" y="-303" font-family="Arial" font-size="14.00" fill="#666666">[table]</text>
<polygon fill="none" stroke="black" points="286.2,-258.8 286.2,-289.6 424.7,-289.6 424.7,-258.8 286.2,-258.8"/>
<text text-anchor="start" x="293.2" y="-271" font-family="Arial" font-size="14.00">var_id </text>
<text text-anchor="start" x="335.22" y="-271" font-family="Arial" font-size="14.00" fill="#666666">[INTEGER]</text>
<polygon fill="none" stroke="black" points="286.2,-228 286.2,-258.8 424.7,-258.8 424.7,-228 286.2,-228"/>
<text text-anchor="start" x="293.2" y="-240.2" font-family="Arial" font-size="14.00">env_id </text>
<text text-anchor="start" x="338.34" y="-240.2" font-family="Arial" font-size="14.00" fill="#666666">[INTEGER]</text>
<polygon fill="none" stroke="black" points="286.2,-197.2 286.2,-228 424.7,-228 424.7,-197.2 286.2,-197.2"/>
<text text-anchor="start" x="293.2" y="-209.4" font-family="Arial" font-size="14.00">name </text>
<text text-anchor="start" x="332.11" y="-209.4" font-family="Arial" font-size="14.00" fill="#666666">[TEXT]</text>
<polygon fill="none" stroke="black" points="286.2,-166.4 286.2,-197.2 424.7,-197.2 424.7,-166.4 286.2,-166.4"/>
<text text-anchor="start" x="293.2" y="-178.6" font-family="Arial" font-size="14.00">comment </text>
<text text-anchor="start" x="354.66" y="-178.6" font-family="Arial" font-size="14.00" fill="#666666">[TEXT]</text>
<polygon fill="none" stroke="black" points="286.2,-135.6 286.2,-166.4 424.7,-166.4 424.7,-135.6 286.2,-135.6"/>
<text text-anchor="start" x="293.2" y="-147.8" font-family="Arial" font-size="14.00">create_time </text>
<text text-anchor="start" x="370.23" y="-147.8" font-family="Arial" font-size="14.00" fill="#666666">[TEXT]</text>
<polygon fill="none" stroke="black" points="286.2,-104.8 286.2,-135.6 424.7,-135.6 424.7,-104.8 286.2,-104.8"/>
<text text-anchor="start" x="293.2" y="-117" font-family="Arial" font-size="14.00">update_time </text>
<text text-anchor="start" x="374.14" y="-117" font-family="Arial" font-size="14.00" fill="#666666">[TEXT]</text>
<polygon fill="none" stroke="black" points="286.2,-74 286.2,-104.8 424.7,-104.8 424.7,-74 286.2,-74"/>
<text text-anchor="start" x="293.2" y="-86.2" font-family="Arial" font-size="14.00">value </text>
<text text-anchor="start" x="330.56" y="-86.2" font-family="Arial" font-size="14.00" fill="#666666">[TEXT]</text>
<polygon fill="none" stroke="black" points="286.2,-43.2 286.2,-74 424.7,-74 424.7,-43.2 286.2,-43.2"/>
<text text-anchor="start" x="293.2" y="-55.4" font-family="Arial" font-size="14.00">enabled </text>
<text text-anchor="start" x="346.92" y="-55.4" font-family="Arial" font-size="14.00" fill="#666666">[INTEGER]</text>
</g>
<!-- var_ref&#45;&gt;var -->
<g id="edge2" class="edge">
<title>var_ref:var_id&#45;&gt;var:var_id</title>
<path fill="none" stroke="black" d="M319.59,-495.35C344.8,-486.58 318.87,-439.98 308.53,-404.4 303.27,-386.32 291.46,-386.48 286.2,-368.4 274.51,-328.2 243.33,-274.2 285.2,-274.2"/>
<polygon fill="black" stroke="black" points="319.76,-495.32 309.22,-492.3 314.48,-496.09 310.19,-496.7 310.19,-496.7 310.19,-496.7 314.48,-496.09 310.5,-501.21 319.76,-495.32"/>
</g>
</g>
</svg>
