<?xml version="1.0" encoding="UTF-8" standalone="no"?>
<!DOCTYPE svg PUBLIC "-//W3C//DTD SVG 1.1//EN"
 "http://www.w3.org/Graphics/SVG/1.1/DTD/svg11.dtd">
<!-- Generated by graphviz version 12.1.2 (20240928.0832)
 -->
<!-- Title: vw_var_ref_expanded Pages: 1 -->
<svg width="342pt" height="444pt"
 viewBox="0.00 0.00 342.23 444.00" xmlns="http://www.w3.org/2000/svg" xmlns:xlink="http://www.w3.org/1999/xlink">
<g id="graph0" class="graph" transform="scale(1 1) rotate(0) translate(4 440)">
<title>vw_var_ref_expanded</title>
<polygon fill="white" stroke="none" points="-4,4 -4,-440 338.23,-440 338.23,4 -4,4"/>
<!-- vw_var_ref_expanded -->
<g id="node1" class="node">
<title>vw_var_ref_expanded</title>
<polygon fill="#efefef" stroke="none" points="46.2,-354.2 46.2,-389.8 288.03,-389.8 288.03,-354.2 46.2,-354.2"/>
<polygon fill="none" stroke="black" points="46.2,-354.2 46.2,-389.8 288.03,-389.8 288.03,-354.2 46.2,-354.2"/>
<text text-anchor="start" x="53.2" y="-367.6" font-family="Arial Bold" font-size="18.00">vw_var_ref_expanded</text>
<text text-anchor="start" x="214.13" y="-367.6" font-family="Arial" font-size="14.00">    </text>
<text text-anchor="start" x="245.24" y="-367.6" font-family="Arial" font-size="14.00" fill="#666666">[view]</text>
<polygon fill="none" stroke="black" points="46.2,-323.4 46.2,-354.2 288.03,-354.2 288.03,-323.4 46.2,-323.4"/>
<text text-anchor="start" x="53.2" y="-335.6" font-family="Arial" font-size="14.00">var_ref_id </text>
<text text-anchor="start" x="119.34" y="-335.6" font-family="Arial" font-size="14.00" fill="#666666">[INTEGER]</text>
<polygon fill="none" stroke="black" points="46.2,-292.6 46.2,-323.4 288.03,-323.4 288.03,-292.6 46.2,-292.6"/>
<text text-anchor="start" x="53.2" y="-304.8" font-family="Arial" font-size="14.00">env_id </text>
<text text-anchor="start" x="98.34" y="-304.8" font-family="Arial" font-size="14.00" fill="#666666">[INTEGER]</text>
<polygon fill="none" stroke="black" points="46.2,-261.8 46.2,-292.6 288.03,-292.6 288.03,-261.8 46.2,-261.8"/>
<text text-anchor="start" x="53.2" y="-274" font-family="Arial" font-size="14.00">env_name </text>
<text text-anchor="start" x="122.47" y="-274" font-family="Arial" font-size="14.00" fill="#666666">[TEXT]</text>
<polygon fill="none" stroke="black" points="46.2,-231 46.2,-261.8 288.03,-261.8 288.03,-231 46.2,-231"/>
<text text-anchor="start" x="53.2" y="-243.2" font-family="Arial" font-size="14.00">name </text>
<text text-anchor="start" x="92.11" y="-243.2" font-family="Arial" font-size="14.00" fill="#666666">[TEXT]</text>
<polygon fill="none" stroke="black" points="46.2,-200.2 46.2,-231 288.03,-231 288.03,-200.2 46.2,-200.2"/>
<text text-anchor="start" x="53.2" y="-212.4" font-family="Arial" font-size="14.00">var_id </text>
<text text-anchor="start" x="95.22" y="-212.4" font-family="Arial" font-size="14.00" fill="#666666">[INTEGER]</text>
<polygon fill="none" stroke="black" points="46.2,-169.4 46.2,-200.2 288.03,-200.2 288.03,-169.4 46.2,-169.4"/>
<text text-anchor="start" x="53.2" y="-181.6" font-family="Arial" font-size="14.00">ref_var_name </text>
<text text-anchor="start" x="143.47" y="-181.6" font-family="Arial" font-size="14.00" fill="#666666">[TEXT]</text>
<polygon fill="none" stroke="black" points="46.2,-138.6 46.2,-169.4 288.03,-169.4 288.03,-138.6 46.2,-138.6"/>
<text text-anchor="start" x="53.2" y="-150.8" font-family="Arial" font-size="14.00">ref_env_name </text>
<text text-anchor="start" x="146.59" y="-150.8" font-family="Arial" font-size="14.00" fill="#666666">[TEXT]</text>
<polygon fill="none" stroke="black" points="46.2,-107.8 46.2,-138.6 288.03,-138.6 288.03,-107.8 46.2,-107.8"/>
<text text-anchor="start" x="53.2" y="-120" font-family="Arial" font-size="14.00">comment </text>
<text text-anchor="start" x="114.66" y="-120" font-family="Arial" font-size="14.00" fill="#666666">[TEXT]</text>
<polygon fill="none" stroke="black" points="46.2,-77 46.2,-107.8 288.03,-107.8 288.03,-77 46.2,-77"/>
<text text-anchor="start" x="53.2" y="-89.2" font-family="Arial" font-size="14.00">create_time </text>
<text text-anchor="start" x="130.23" y="-89.2" font-family="Arial" font-size="14.00" fill="#666666">[TEXT]</text>
<polygon fill="none" stroke="black" points="46.2,-46.2 46.2,-77 288.03,-77 288.03,-46.2 46.2,-46.2"/>
<text text-anchor="start" x="53.2" y="-58.4" font-family="Arial" font-size="14.00">update_time </text>
<text text-anchor="start" x="134.14" y="-58.4" font-family="Arial" font-size="14.00" fill="#666666">[TEXT]</text>
<polygon fill="none" stroke="black" stroke-width="3" points="44.7,-44.7 44.7,-391.3 289.53,-391.3 289.53,-44.7 44.7,-44.7"/>
</g>
</g>
</svg>
