<?xml version="1.0" encoding="UTF-8" standalone="no"?>
<!DOCTYPE svg PUBLIC "-//W3C//DTD SVG 1.1//EN"
 "http://www.w3.org/Graphics/SVG/1.1/DTD/svg11.dtd">
<!-- Generated by graphviz version 12.1.2 (20240928.0832)
 -->
<!-- Title: vw_var_expanded Pages: 1 -->
<svg width="313pt" height="444pt"
 viewBox="0.00 0.00 313.25 444.00" xmlns="http://www.w3.org/2000/svg" xmlns:xlink="http://www.w3.org/1999/xlink">
<g id="graph0" class="graph" transform="scale(1 1) rotate(0) translate(4 440)">
<title>vw_var_expanded</title>
<polygon fill="white" stroke="none" points="-4,4 -4,-440 309.25,-440 309.25,4 -4,4"/>
<!-- vw_var_expanded -->
<g id="node1" class="node">
<title>vw_var_expanded</title>
<polygon fill="#efefef" stroke="none" points="46.2,-354.2 46.2,-389.8 259.05,-389.8 259.05,-354.2 46.2,-354.2"/>
<polygon fill="none" stroke="black" points="46.2,-354.2 46.2,-389.8 259.05,-389.8 259.05,-354.2 46.2,-354.2"/>
<text text-anchor="start" x="53.2" y="-367.6" font-family="Arial Bold" font-size="18.00">vw_var_expanded</text>
<text text-anchor="start" x="185.15" y="-367.6" font-family="Arial" font-size="14.00">    </text>
<text text-anchor="start" x="216.27" y="-367.6" font-family="Arial" font-size="14.00" fill="#666666">[view]</text>
<polygon fill="none" stroke="black" points="46.2,-323.4 46.2,-354.2 259.05,-354.2 259.05,-323.4 46.2,-323.4"/>
<text text-anchor="start" x="53.2" y="-335.6" font-family="Arial" font-size="14.00">var_id </text>
<text text-anchor="start" x="95.22" y="-335.6" font-family="Arial" font-size="14.00" fill="#666666">[INTEGER]</text>
<polygon fill="none" stroke="black" points="46.2,-292.6 46.2,-323.4 259.05,-323.4 259.05,-292.6 46.2,-292.6"/>
<text text-anchor="start" x="53.2" y="-304.8" font-family="Arial" font-size="14.00">env_id </text>
<text text-anchor="start" x="98.34" y="-304.8" font-family="Arial" font-size="14.00" fill="#666666">[INTEGER]</text>
<polygon fill="none" stroke="black" points="46.2,-261.8 46.2,-292.6 259.05,-292.6 259.05,-261.8 46.2,-261.8"/>
<text text-anchor="start" x="53.2" y="-274" font-family="Arial" font-size="14.00">env_name </text>
<text text-anchor="start" x="122.47" y="-274" font-family="Arial" font-size="14.00" fill="#666666">[TEXT]</text>
<polygon fill="none" stroke="black" points="46.2,-231 46.2,-261.8 259.05,-261.8 259.05,-231 46.2,-231"/>
<text text-anchor="start" x="53.2" y="-243.2" font-family="Arial" font-size="14.00">name </text>
<text text-anchor="start" x="92.11" y="-243.2" font-family="Arial" font-size="14.00" fill="#666666">[TEXT]</text>
<polygon fill="none" stroke="black" points="46.2,-200.2 46.2,-231 259.05,-231 259.05,-200.2 46.2,-200.2"/>
<text text-anchor="start" x="53.2" y="-212.4" font-family="Arial" font-size="14.00">value </text>
<text text-anchor="start" x="90.56" y="-212.4" font-family="Arial" font-size="14.00" fill="#666666">[TEXT]</text>
<polygon fill="none" stroke="black" points="46.2,-169.4 46.2,-200.2 259.05,-200.2 259.05,-169.4 46.2,-169.4"/>
<text text-anchor="start" x="53.2" y="-181.6" font-family="Arial" font-size="14.00">comment </text>
<text text-anchor="start" x="114.66" y="-181.6" font-family="Arial" font-size="14.00" fill="#666666">[TEXT]</text>
<polygon fill="none" stroke="black" points="46.2,-138.6 46.2,-169.4 259.05,-169.4 259.05,-138.6 46.2,-138.6"/>
<text text-anchor="start" x="53.2" y="-150.8" font-family="Arial" font-size="14.00">create_time </text>
<text text-anchor="start" x="130.23" y="-150.8" font-family="Arial" font-size="14.00" fill="#666666">[TEXT]</text>
<polygon fill="none" stroke="black" points="46.2,-107.8 46.2,-138.6 259.05,-138.6 259.05,-107.8 46.2,-107.8"/>
<text text-anchor="start" x="53.2" y="-120" font-family="Arial" font-size="14.00">update_time </text>
<text text-anchor="start" x="134.14" y="-120" font-family="Arial" font-size="14.00" fill="#666666">[TEXT]</text>
<polygon fill="none" stroke="black" points="46.2,-77 46.2,-107.8 259.05,-107.8 259.05,-77 46.2,-77"/>
<text text-anchor="start" x="53.2" y="-89.2" font-family="Arial" font-size="14.00">enabled </text>
<text text-anchor="start" x="106.92" y="-89.2" font-family="Arial" font-size="14.00" fill="#666666">[INTEGER]</text>
<polygon fill="none" stroke="black" points="46.2,-46.2 46.2,-77 259.05,-77 259.05,-46.2 46.2,-46.2"/>
<text text-anchor="start" x="53.2" y="-58.4" font-family="Arial" font-size="14.00">completions </text>
<text text-anchor="start" x="131.79" y="-58.4" font-family="Arial" font-size="14.00" fill="#666666">[TEXT]</text>
<polygon fill="none" stroke="black" stroke-width="3" points="44.7,-44.7 44.7,-391.3 260.55,-391.3 260.55,-44.7 44.7,-44.7"/>
</g>
</g>
</svg>
