<?xml version="1.0" encoding="UTF-8" standalone="no"?>
<!DOCTYPE svg PUBLIC "-//W3C//DTD SVG 1.1//EN"
 "http://www.w3.org/Graphics/SVG/1.1/DTD/svg11.dtd">
<!-- Generated by graphviz version 12.1.2 (20240928.0832)
 -->
<!-- Title: Envelope Database Schema Pages: 1 -->
<svg width="1968pt" height="1185pt"
 viewBox="0.00 0.00 1968.19 1185.20" xmlns="http://www.w3.org/2000/svg" xmlns:xlink="http://www.w3.org/1999/xlink">
<g id="graph0" class="graph" transform="scale(1 1) rotate(0) translate(4 1181.2)">
<title>Envelope Database Schema</title>
<polygon fill="white" stroke="none" points="-4,4 -4,-1181.2 1964.19,-1181.2 1964.19,4 -4,4"/>
<!-- migration_v2 -->
<g id="node1" class="node">
<title>migration_v2</title>
<polygon fill="#efefef" stroke="none" points="43.2,-990.6 43.2,-1026.2 229.93,-1026.2 229.93,-990.6 43.2,-990.6"/>
<polygon fill="none" stroke="black" points="43.2,-990.6 43.2,-1026.2 229.93,-1026.2 229.93,-990.6 43.2,-990.6"/>
<text text-anchor="start" x="53.44" y="-1004" font-family="Arial Bold" font-size="18.00">migration_v2</text>
<text text-anchor="start" x="150.43" y="-1004" font-family="Arial" font-size="14.00">    </text>
<text text-anchor="start" x="181.55" y="-1004" font-family="Arial" font-size="14.00" fill="#666666">[table]</text>
<polygon fill="none" stroke="black" points="43.2,-959.8 43.2,-990.6 229.93,-990.6 229.93,-959.8 43.2,-959.8"/>
<text text-anchor="start" x="50.2" y="-972" font-family="Arial" font-size="14.00">migration_v2_id </text>
<text text-anchor="start" x="152.92" y="-972" font-family="Arial" font-size="14.00" fill="#666666">[INTEGER]</text>
<polygon fill="none" stroke="black" points="43.2,-929 43.2,-959.8 229.93,-959.8 229.93,-929 43.2,-929"/>
<text text-anchor="start" x="50.2" y="-941.2" font-family="Arial" font-size="14.00">file_name </text>
<text text-anchor="start" x="114.79" y="-941.2" font-family="Arial" font-size="14.00" fill="#666666">[TEXT]</text>
<polygon fill="none" stroke="black" points="43.2,-898.2 43.2,-929 229.93,-929 229.93,-898.2 43.2,-898.2"/>
<text text-anchor="start" x="50.2" y="-910.4" font-family="Arial" font-size="14.00">migrate_time </text>
<text text-anchor="start" x="135.01" y="-910.4" font-family="Arial" font-size="14.00" fill="#666666">[TEXT]</text>
</g>
<!-- env -->
<g id="node2" class="node">
<title>env</title>
<polygon fill="#efefef" stroke="none" points="340.31,-228 340.31,-263.6 478.82,-263.6 478.82,-228 340.31,-228"/>
<polygon fill="none" stroke="black" points="340.31,-228 340.31,-263.6 478.82,-263.6 478.82,-228 340.31,-228"/>
<text text-anchor="start" x="361.94" y="-241.4" font-family="Arial Bold" font-size="18.00">env</text>
<text text-anchor="start" x="387.93" y="-241.4" font-family="Arial" font-size="14.00">    </text>
<text text-anchor="start" x="419.05" y="-241.4" font-family="Arial" font-size="14.00" fill="#666666">[table]</text>
<polygon fill="none" stroke="black" points="340.31,-197.2 340.31,-228 478.82,-228 478.82,-197.2 340.31,-197.2"/>
<text text-anchor="start" x="347.31" y="-209.4" font-family="Arial" font-size="14.00">env_id </text>
<text text-anchor="start" x="392.46" y="-209.4" font-family="Arial" font-size="14.00" fill="#666666">[INTEGER]</text>
<polygon fill="none" stroke="black" points="340.31,-166.4 340.31,-197.2 478.82,-197.2 478.82,-166.4 340.31,-166.4"/>
<text text-anchor="start" x="347.31" y="-178.6" font-family="Arial" font-size="14.00">name </text>
<text text-anchor="start" x="386.22" y="-178.6" font-family="Arial" font-size="14.00" fill="#666666">[TEXT]</text>
<polygon fill="none" stroke="black" points="340.31,-135.6 340.31,-166.4 478.82,-166.4 478.82,-135.6 340.31,-135.6"/>
<text text-anchor="start" x="347.31" y="-147.8" font-family="Arial" font-size="14.00">comment </text>
<text text-anchor="start" x="408.78" y="-147.8" font-family="Arial" font-size="14.00" fill="#666666">[TEXT]</text>
<polygon fill="none" stroke="black" points="340.31,-104.8 340.31,-135.6 478.82,-135.6 478.82,-104.8 340.31,-104.8"/>
<text text-anchor="start" x="347.31" y="-117" font-family="Arial" font-size="14.00">create_time </text>
<text text-anchor="start" x="424.35" y="-117" font-family="Arial" font-size="14.00" fill="#666666">[TEXT]</text>
<polygon fill="none" stroke="black" points="340.31,-74 340.31,-104.8 478.82,-104.8 478.82,-74 340.31,-74"/>
<text text-anchor="start" x="347.31" y="-86.2" font-family="Arial" font-size="14.00">update_time </text>
<text text-anchor="start" x="428.26" y="-86.2" font-family="Arial" font-size="14.00" fill="#666666">[TEXT]</text>
<polygon fill="none" stroke="black" points="340.31,-43.2 340.31,-74 478.82,-74 478.82,-43.2 340.31,-43.2"/>
<text text-anchor="start" x="347.31" y="-55.4" font-family="Arial" font-size="14.00">enabled </text>
<text text-anchor="start" x="401.03" y="-55.4" font-family="Arial" font-size="14.00" fill="#666666">[INTEGER]</text>
</g>
<!-- var -->
<g id="node3" class="node">
<title>var</title>
<polygon fill="#efefef" stroke="none" points="410.31,-632.4 410.31,-668 548.82,-668 548.82,-632.4 410.31,-632.4"/>
<polygon fill="none" stroke="black" points="410.31,-632.4 410.31,-668 548.82,-668 548.82,-632.4 410.31,-632.4"/>
<text text-anchor="start" x="433.45" y="-645.8" font-family="Arial Bold" font-size="18.00">var</text>
<text text-anchor="start" x="456.43" y="-645.8" font-family="Arial" font-size="14.00">    </text>
<text text-anchor="start" x="487.55" y="-645.8" font-family="Arial" font-size="14.00" fill="#666666">[table]</text>
<polygon fill="none" stroke="black" points="410.31,-601.6 410.31,-632.4 548.82,-632.4 548.82,-601.6 410.31,-601.6"/>
<text text-anchor="start" x="417.31" y="-613.8" font-family="Arial" font-size="14.00">var_id </text>
<text text-anchor="start" x="459.33" y="-613.8" font-family="Arial" font-size="14.00" fill="#666666">[INTEGER]</text>
<polygon fill="none" stroke="black" points="410.31,-570.8 410.31,-601.6 548.82,-601.6 548.82,-570.8 410.31,-570.8"/>
<text text-anchor="start" x="417.31" y="-583" font-family="Arial" font-size="14.00">env_id </text>
<text text-anchor="start" x="462.46" y="-583" font-family="Arial" font-size="14.00" fill="#666666">[INTEGER]</text>
<polygon fill="none" stroke="black" points="410.31,-540 410.31,-570.8 548.82,-570.8 548.82,-540 410.31,-540"/>
<text text-anchor="start" x="417.31" y="-552.2" font-family="Arial" font-size="14.00">name </text>
<text text-anchor="start" x="456.22" y="-552.2" font-family="Arial" font-size="14.00" fill="#666666">[TEXT]</text>
<polygon fill="none" stroke="black" points="410.31,-509.2 410.31,-540 548.82,-540 548.82,-509.2 410.31,-509.2"/>
<text text-anchor="start" x="417.31" y="-521.4" font-family="Arial" font-size="14.00">comment </text>
<text text-anchor="start" x="478.78" y="-521.4" font-family="Arial" font-size="14.00" fill="#666666">[TEXT]</text>
<polygon fill="none" stroke="black" points="410.31,-478.4 410.31,-509.2 548.82,-509.2 548.82,-478.4 410.31,-478.4"/>
<text text-anchor="start" x="417.31" y="-490.6" font-family="Arial" font-size="14.00">create_time </text>
<text text-anchor="start" x="494.35" y="-490.6" font-family="Arial" font-size="14.00" fill="#666666">[TEXT]</text>
<polygon fill="none" stroke="black" points="410.31,-447.6 410.31,-478.4 548.82,-478.4 548.82,-447.6 410.31,-447.6"/>
<text text-anchor="start" x="417.31" y="-459.8" font-family="Arial" font-size="14.00">update_time </text>
<text text-anchor="start" x="498.26" y="-459.8" font-family="Arial" font-size="14.00" fill="#666666">[TEXT]</text>
<polygon fill="none" stroke="black" points="410.31,-416.8 410.31,-447.6 548.82,-447.6 548.82,-416.8 410.31,-416.8"/>
<text text-anchor="start" x="417.31" y="-429" font-family="Arial" font-size="14.00">value </text>
<text text-anchor="start" x="454.67" y="-429" font-family="Arial" font-size="14.00" fill="#666666">[TEXT]</text>
<polygon fill="none" stroke="black" points="410.31,-386 410.31,-416.8 548.82,-416.8 548.82,-386 410.31,-386"/>
<text text-anchor="start" x="417.31" y="-398.2" font-family="Arial" font-size="14.00">enabled </text>
<text text-anchor="start" x="471.03" y="-398.2" font-family="Arial" font-size="14.00" fill="#666666">[INTEGER]</text>
</g>
<!-- var&#45;&gt;env -->
<g id="edge1" class="edge">
<title>var:env_id&#45;&gt;env:env_id</title>
<path fill="none" stroke="black" d="M399.33,-583.55C358.92,-559.95 384.17,-385.88 410.31,-342.8 428.16,-313.4 460.88,-336.14 478.82,-306.8 500.66,-271.08 521.69,-212.6 479.82,-212.6"/>
<polygon fill="black" stroke="black" points="399.33,-583.55 407.83,-590.46 404.48,-584.92 408.67,-586.03 408.67,-586.03 408.67,-586.03 404.48,-584.92 410.15,-581.77 399.33,-583.55"/>
</g>
<!-- var_ref -->
<g id="node4" class="node">
<title>var_ref</title>
<polygon fill="#efefef" stroke="none" points="334.49,-1067.6 334.49,-1103.2 484.64,-1103.2 484.64,-1067.6 334.49,-1067.6"/>
<polygon fill="none" stroke="black" points="334.49,-1067.6 334.49,-1103.2 484.64,-1103.2 484.64,-1067.6 334.49,-1067.6"/>
<text text-anchor="start" x="348.96" y="-1081" font-family="Arial Bold" font-size="18.00">var_ref</text>
<text text-anchor="start" x="400.92" y="-1081" font-family="Arial" font-size="14.00">    </text>
<text text-anchor="start" x="432.04" y="-1081" font-family="Arial" font-size="14.00" fill="#666666">[table]</text>
<polygon fill="none" stroke="black" points="334.49,-1036.8 334.49,-1067.6 484.64,-1067.6 484.64,-1036.8 334.49,-1036.8"/>
<text text-anchor="start" x="341.49" y="-1049" font-family="Arial" font-size="14.00">var_ref_id </text>
<text text-anchor="start" x="407.63" y="-1049" font-family="Arial" font-size="14.00" fill="#666666">[INTEGER]</text>
<polygon fill="none" stroke="black" points="334.49,-1006 334.49,-1036.8 484.64,-1036.8 484.64,-1006 334.49,-1006"/>
<text text-anchor="start" x="341.49" y="-1018.2" font-family="Arial" font-size="14.00">env_id </text>
<text text-anchor="start" x="386.63" y="-1018.2" font-family="Arial" font-size="14.00" fill="#666666">[INTEGER]</text>
<polygon fill="none" stroke="black" points="334.49,-975.2 334.49,-1006 484.64,-1006 484.64,-975.2 334.49,-975.2"/>
<text text-anchor="start" x="341.49" y="-987.4" font-family="Arial" font-size="14.00">name </text>
<text text-anchor="start" x="380.4" y="-987.4" font-family="Arial" font-size="14.00" fill="#666666">[TEXT]</text>
<polygon fill="none" stroke="black" points="334.49,-944.4 334.49,-975.2 484.64,-975.2 484.64,-944.4 334.49,-944.4"/>
<text text-anchor="start" x="341.49" y="-956.6" font-family="Arial" font-size="14.00">comment </text>
<text text-anchor="start" x="402.95" y="-956.6" font-family="Arial" font-size="14.00" fill="#666666">[TEXT]</text>
<polygon fill="none" stroke="black" points="334.49,-913.6 334.49,-944.4 484.64,-944.4 484.64,-913.6 334.49,-913.6"/>
<text text-anchor="start" x="341.49" y="-925.8" font-family="Arial" font-size="14.00">create_time </text>
<text text-anchor="start" x="418.52" y="-925.8" font-family="Arial" font-size="14.00" fill="#666666">[TEXT]</text>
<polygon fill="none" stroke="black" points="334.49,-882.8 334.49,-913.6 484.64,-913.6 484.64,-882.8 334.49,-882.8"/>
<text text-anchor="start" x="341.49" y="-895" font-family="Arial" font-size="14.00">update_time </text>
<text text-anchor="start" x="422.43" y="-895" font-family="Arial" font-size="14.00" fill="#666666">[TEXT]</text>
<polygon fill="none" stroke="black" points="334.49,-852 334.49,-882.8 484.64,-882.8 484.64,-852 334.49,-852"/>
<text text-anchor="start" x="341.49" y="-864.2" font-family="Arial" font-size="14.00">var_id </text>
<text text-anchor="start" x="383.51" y="-864.2" font-family="Arial" font-size="14.00" fill="#666666">[INTEGER]</text>
<polygon fill="none" stroke="black" points="334.49,-821.2 334.49,-852 484.64,-852 484.64,-821.2 334.49,-821.2"/>
<text text-anchor="start" x="341.49" y="-833.4" font-family="Arial" font-size="14.00">enabled </text>
<text text-anchor="start" x="395.21" y="-833.4" font-family="Arial" font-size="14.00" fill="#666666">[INTEGER]</text>
</g>
<!-- var_ref&#45;&gt;env -->
<g id="edge3" class="edge">
<title>var_ref:env_id&#45;&gt;env:env_id</title>
<path fill="none" stroke="black" d="M326.34,-1013.91C289.34,-932.37 296.92,-212.6 339.31,-212.6"/>
<polygon fill="black" stroke="black" points="326.35,-1013.92 330,-1024.26 330.04,-1017.78 333.03,-1020.92 333.03,-1020.92 333.03,-1020.92 330.04,-1017.78 336.51,-1018.05 326.35,-1013.92"/>
</g>
<!-- var_ref&#45;&gt;var -->
<g id="edge2" class="edge">
<title>var_ref:var_id&#45;&gt;var:var_id</title>
<path fill="none" stroke="black" d="M495.84,-865.83C520.51,-856.77 499.36,-810.53 484.64,-778 466.33,-737.53 428.61,-751.67 410.31,-711.2 393.06,-673.05 367.44,-617 409.31,-617"/>
<polygon fill="black" stroke="black" points="495.85,-865.83 485.29,-862.9 490.58,-866.64 486.3,-867.3 486.3,-867.3 486.3,-867.3 490.58,-866.64 486.66,-871.8 495.85,-865.83"/>
</g>
<!-- vw_env_var_var_ref_unique_name -->
<g id="node5" class="node">
<title>vw_env_var_var_ref_unique_name</title>
<polygon fill="#efefef" stroke="none" points="589.16,-975.2 589.16,-1010.8 925.97,-1010.8 925.97,-975.2 589.16,-975.2"/>
<polygon fill="none" stroke="black" points="589.16,-975.2 589.16,-1010.8 925.97,-1010.8 925.97,-975.2 589.16,-975.2"/>
<text text-anchor="start" x="596.16" y="-988.6" font-family="Arial Bold" font-size="18.00">vw_env_var_var_ref_unique_name</text>
<text text-anchor="start" x="852.06" y="-988.6" font-family="Arial" font-size="14.00">    </text>
<text text-anchor="start" x="883.18" y="-988.6" font-family="Arial" font-size="14.00" fill="#666666">[view]</text>
<polygon fill="none" stroke="black" points="589.16,-944.4 589.16,-975.2 925.97,-975.2 925.97,-944.4 589.16,-944.4"/>
<text text-anchor="start" x="596.16" y="-956.6" font-family="Arial" font-size="14.00">env_id </text>
<text text-anchor="start" x="641.31" y="-956.6" font-family="Arial" font-size="14.00" fill="#666666">[INTEGER]</text>
<polygon fill="none" stroke="black" points="589.16,-913.6 589.16,-944.4 925.97,-944.4 925.97,-913.6 589.16,-913.6"/>
<text text-anchor="start" x="596.16" y="-925.8" font-family="Arial" font-size="14.00">name </text>
<text text-anchor="start" x="635.07" y="-925.8" font-family="Arial" font-size="14.00" fill="#666666">[TEXT]</text>
</g>
<!-- vw_var_expanded -->
<g id="node6" class="node">
<title>vw_var_expanded</title>
<polygon fill="#efefef" stroke="none" points="1030.14,-1067.6 1030.14,-1103.2 1242.99,-1103.2 1242.99,-1067.6 1030.14,-1067.6"/>
<polygon fill="none" stroke="black" points="1030.14,-1067.6 1030.14,-1103.2 1242.99,-1103.2 1242.99,-1067.6 1030.14,-1067.6"/>
<text text-anchor="start" x="1037.14" y="-1081" font-family="Arial Bold" font-size="18.00">vw_var_expanded</text>
<text text-anchor="start" x="1169.09" y="-1081" font-family="Arial" font-size="14.00">    </text>
<text text-anchor="start" x="1200.21" y="-1081" font-family="Arial" font-size="14.00" fill="#666666">[view]</text>
<polygon fill="none" stroke="black" points="1030.14,-1036.8 1030.14,-1067.6 1242.99,-1067.6 1242.99,-1036.8 1030.14,-1036.8"/>
<text text-anchor="start" x="1037.14" y="-1049" font-family="Arial" font-size="14.00">var_id </text>
<text text-anchor="start" x="1079.16" y="-1049" font-family="Arial" font-size="14.00" fill="#666666">[INTEGER]</text>
<polygon fill="none" stroke="black" points="1030.14,-1006 1030.14,-1036.8 1242.99,-1036.8 1242.99,-1006 1030.14,-1006"/>
<text text-anchor="start" x="1037.14" y="-1018.2" font-family="Arial" font-size="14.00">env_id </text>
<text text-anchor="start" x="1082.28" y="-1018.2" font-family="Arial" font-size="14.00" fill="#666666">[INTEGER]</text>
<polygon fill="none" stroke="black" points="1030.14,-975.2 1030.14,-1006 1242.99,-1006 1242.99,-975.2 1030.14,-975.2"/>
<text text-anchor="start" x="1037.14" y="-987.4" font-family="Arial" font-size="14.00">env_name </text>
<text text-anchor="start" x="1106.41" y="-987.4" font-family="Arial" font-size="14.00" fill="#666666">[TEXT]</text>
<polygon fill="none" stroke="black" points="1030.14,-944.4 1030.14,-975.2 1242.99,-975.2 1242.99,-944.4 1030.14,-944.4"/>
<text text-anchor="start" x="1037.14" y="-956.6" font-family="Arial" font-size="14.00">name </text>
<text text-anchor="start" x="1076.05" y="-956.6" font-family="Arial" font-size="14.00" fill="#666666">[TEXT]</text>
<polygon fill="none" stroke="black" points="1030.14,-913.6 1030.14,-944.4 1242.99,-944.4 1242.99,-913.6 1030.14,-913.6"/>
<text text-anchor="start" x="1037.14" y="-925.8" font-family="Arial" font-size="14.00">value </text>
<text text-anchor="start" x="1074.5" y="-925.8" font-family="Arial" font-size="14.00" fill="#666666">[TEXT]</text>
<polygon fill="none" stroke="black" points="1030.14,-882.8 1030.14,-913.6 1242.99,-913.6 1242.99,-882.8 1030.14,-882.8"/>
<text text-anchor="start" x="1037.14" y="-895" font-family="Arial" font-size="14.00">comment </text>
<text text-anchor="start" x="1098.6" y="-895" font-family="Arial" font-size="14.00" fill="#666666">[TEXT]</text>
<polygon fill="none" stroke="black" points="1030.14,-852 1030.14,-882.8 1242.99,-882.8 1242.99,-852 1030.14,-852"/>
<text text-anchor="start" x="1037.14" y="-864.2" font-family="Arial" font-size="14.00">create_time </text>
<text text-anchor="start" x="1114.17" y="-864.2" font-family="Arial" font-size="14.00" fill="#666666">[TEXT]</text>
<polygon fill="none" stroke="black" points="1030.14,-821.2 1030.14,-852 1242.99,-852 1242.99,-821.2 1030.14,-821.2"/>
<text text-anchor="start" x="1037.14" y="-833.4" font-family="Arial" font-size="14.00">update_time </text>
<text text-anchor="start" x="1118.08" y="-833.4" font-family="Arial" font-size="14.00" fill="#666666">[TEXT]</text>
</g>
<!-- vw_var_ref_expanded -->
<g id="node7" class="node">
<title>vw_var_ref_expanded</title>
<polygon fill="#efefef" stroke="none" points="1347.65,-1098.4 1347.65,-1134 1589.48,-1134 1589.48,-1098.4 1347.65,-1098.4"/>
<polygon fill="none" stroke="black" points="1347.65,-1098.4 1347.65,-1134 1589.48,-1134 1589.48,-1098.4 1347.65,-1098.4"/>
<text text-anchor="start" x="1354.65" y="-1111.8" font-family="Arial Bold" font-size="18.00">vw_var_ref_expanded</text>
<text text-anchor="start" x="1515.58" y="-1111.8" font-family="Arial" font-size="14.00">    </text>
<text text-anchor="start" x="1546.69" y="-1111.8" font-family="Arial" font-size="14.00" fill="#666666">[view]</text>
<polygon fill="none" stroke="black" points="1347.65,-1067.6 1347.65,-1098.4 1589.48,-1098.4 1589.48,-1067.6 1347.65,-1067.6"/>
<text text-anchor="start" x="1354.65" y="-1079.8" font-family="Arial" font-size="14.00">var_ref_id </text>
<text text-anchor="start" x="1420.79" y="-1079.8" font-family="Arial" font-size="14.00" fill="#666666">[INTEGER]</text>
<polygon fill="none" stroke="black" points="1347.65,-1036.8 1347.65,-1067.6 1589.48,-1067.6 1589.48,-1036.8 1347.65,-1036.8"/>
<text text-anchor="start" x="1354.65" y="-1049" font-family="Arial" font-size="14.00">env_id </text>
<text text-anchor="start" x="1399.79" y="-1049" font-family="Arial" font-size="14.00" fill="#666666">[INTEGER]</text>
<polygon fill="none" stroke="black" points="1347.65,-1006 1347.65,-1036.8 1589.48,-1036.8 1589.48,-1006 1347.65,-1006"/>
<text text-anchor="start" x="1354.65" y="-1018.2" font-family="Arial" font-size="14.00">env_name </text>
<text text-anchor="start" x="1423.92" y="-1018.2" font-family="Arial" font-size="14.00" fill="#666666">[TEXT]</text>
<polygon fill="none" stroke="black" points="1347.65,-975.2 1347.65,-1006 1589.48,-1006 1589.48,-975.2 1347.65,-975.2"/>
<text text-anchor="start" x="1354.65" y="-987.4" font-family="Arial" font-size="14.00">name </text>
<text text-anchor="start" x="1393.56" y="-987.4" font-family="Arial" font-size="14.00" fill="#666666">[TEXT]</text>
<polygon fill="none" stroke="black" points="1347.65,-944.4 1347.65,-975.2 1589.48,-975.2 1589.48,-944.4 1347.65,-944.4"/>
<text text-anchor="start" x="1354.65" y="-956.6" font-family="Arial" font-size="14.00">var_id </text>
<text text-anchor="start" x="1396.67" y="-956.6" font-family="Arial" font-size="14.00" fill="#666666">[INTEGER]</text>
<polygon fill="none" stroke="black" points="1347.65,-913.6 1347.65,-944.4 1589.48,-944.4 1589.48,-913.6 1347.65,-913.6"/>
<text text-anchor="start" x="1354.65" y="-925.8" font-family="Arial" font-size="14.00">ref_var_name </text>
<text text-anchor="start" x="1444.92" y="-925.8" font-family="Arial" font-size="14.00" fill="#666666">[TEXT]</text>
<polygon fill="none" stroke="black" points="1347.65,-882.8 1347.65,-913.6 1589.48,-913.6 1589.48,-882.8 1347.65,-882.8"/>
<text text-anchor="start" x="1354.65" y="-895" font-family="Arial" font-size="14.00">ref_env_name </text>
<text text-anchor="start" x="1448.04" y="-895" font-family="Arial" font-size="14.00" fill="#666666">[TEXT]</text>
<polygon fill="none" stroke="black" points="1347.65,-852 1347.65,-882.8 1589.48,-882.8 1589.48,-852 1347.65,-852"/>
<text text-anchor="start" x="1354.65" y="-864.2" font-family="Arial" font-size="14.00">comment </text>
<text text-anchor="start" x="1416.11" y="-864.2" font-family="Arial" font-size="14.00" fill="#666666">[TEXT]</text>
<polygon fill="none" stroke="black" points="1347.65,-821.2 1347.65,-852 1589.48,-852 1589.48,-821.2 1347.65,-821.2"/>
<text text-anchor="start" x="1354.65" y="-833.4" font-family="Arial" font-size="14.00">create_time </text>
<text text-anchor="start" x="1431.68" y="-833.4" font-family="Arial" font-size="14.00" fill="#666666">[TEXT]</text>
<polygon fill="none" stroke="black" points="1347.65,-790.4 1347.65,-821.2 1589.48,-821.2 1589.48,-790.4 1347.65,-790.4"/>
<text text-anchor="start" x="1354.65" y="-802.6" font-family="Arial" font-size="14.00">update_time </text>
<text text-anchor="start" x="1435.59" y="-802.6" font-family="Arial" font-size="14.00" fill="#666666">[TEXT]</text>
</g>
<!-- vw_env_exportable -->
<g id="node8" class="node">
<title>vw_env_exportable</title>
<polygon fill="#efefef" stroke="none" points="1694.14,-1083 1694.14,-1118.6 1916.99,-1118.6 1916.99,-1083 1694.14,-1083"/>
<polygon fill="none" stroke="black" points="1694.14,-1083 1694.14,-1118.6 1916.99,-1118.6 1916.99,-1083 1694.14,-1083"/>
<text text-anchor="start" x="1701.14" y="-1096.4" font-family="Arial Bold" font-size="18.00">vw_env_exportable</text>
<text text-anchor="start" x="1843.09" y="-1096.4" font-family="Arial" font-size="14.00">    </text>
<text text-anchor="start" x="1874.21" y="-1096.4" font-family="Arial" font-size="14.00" fill="#666666">[view]</text>
<polygon fill="none" stroke="black" points="1694.14,-1052.2 1694.14,-1083 1916.99,-1083 1916.99,-1052.2 1694.14,-1052.2"/>
<text text-anchor="start" x="1701.14" y="-1064.4" font-family="Arial" font-size="14.00">env_id </text>
<text text-anchor="start" x="1746.28" y="-1064.4" font-family="Arial" font-size="14.00" fill="#666666">[INTEGER]</text>
<polygon fill="none" stroke="black" points="1694.14,-1021.4 1694.14,-1052.2 1916.99,-1052.2 1916.99,-1021.4 1694.14,-1021.4"/>
<text text-anchor="start" x="1701.14" y="-1033.6" font-family="Arial" font-size="14.00">env_name </text>
<text text-anchor="start" x="1770.41" y="-1033.6" font-family="Arial" font-size="14.00" fill="#666666">[TEXT]</text>
<polygon fill="none" stroke="black" points="1694.14,-990.6 1694.14,-1021.4 1916.99,-1021.4 1916.99,-990.6 1694.14,-990.6"/>
<text text-anchor="start" x="1701.14" y="-1002.8" font-family="Arial" font-size="14.00">name </text>
<text text-anchor="start" x="1740.05" y="-1002.8" font-family="Arial" font-size="14.00" fill="#666666">[TEXT]</text>
<polygon fill="none" stroke="black" points="1694.14,-959.8 1694.14,-990.6 1916.99,-990.6 1916.99,-959.8 1694.14,-959.8"/>
<text text-anchor="start" x="1701.14" y="-972" font-family="Arial" font-size="14.00">type </text>
<text text-anchor="start" x="1731.49" y="-972" font-family="Arial" font-size="14.00" fill="#666666">[]</text>
<polygon fill="none" stroke="black" points="1694.14,-929 1694.14,-959.8 1916.99,-959.8 1916.99,-929 1694.14,-929"/>
<text text-anchor="start" x="1701.14" y="-941.2" font-family="Arial" font-size="14.00">comment </text>
<text text-anchor="start" x="1762.6" y="-941.2" font-family="Arial" font-size="14.00" fill="#666666">[TEXT]</text>
<polygon fill="none" stroke="black" points="1694.14,-898.2 1694.14,-929 1916.99,-929 1916.99,-898.2 1694.14,-898.2"/>
<text text-anchor="start" x="1701.14" y="-910.4" font-family="Arial" font-size="14.00">enabled </text>
<text text-anchor="start" x="1754.85" y="-910.4" font-family="Arial" font-size="14.00" fill="#666666">[INTEGER]</text>
<polygon fill="none" stroke="black" points="1694.14,-867.4 1694.14,-898.2 1916.99,-898.2 1916.99,-867.4 1694.14,-867.4"/>
<text text-anchor="start" x="1701.14" y="-879.6" font-family="Arial" font-size="14.00">value </text>
<text text-anchor="start" x="1738.5" y="-879.6" font-family="Arial" font-size="14.00" fill="#666666">[TEXT]</text>
<polygon fill="none" stroke="black" points="1694.14,-836.6 1694.14,-867.4 1916.99,-867.4 1916.99,-836.6 1694.14,-836.6"/>
<text text-anchor="start" x="1701.14" y="-848.8" font-family="Arial" font-size="14.00">create_time </text>
<text text-anchor="start" x="1778.17" y="-848.8" font-family="Arial" font-size="14.00" fill="#666666">[TEXT]</text>
<polygon fill="none" stroke="black" points="1694.14,-805.8 1694.14,-836.6 1916.99,-836.6 1916.99,-805.8 1694.14,-805.8"/>
<text text-anchor="start" x="1701.14" y="-818" font-family="Arial" font-size="14.00">update_time </text>
<text text-anchor="start" x="1782.08" y="-818" font-family="Arial" font-size="14.00" fill="#666666">[TEXT]</text>
</g>
</g>
</svg>
