<?xml version="1.0" encoding="UTF-8" standalone="no"?>
<!DOCTYPE svg PUBLIC "-//W3C//DTD SVG 1.1//EN"
 "http://www.w3.org/Graphics/SVG/1.1/DTD/svg11.dtd">
<!-- Generated by graphviz version 12.1.2 (20240928.0832)
 -->
<!-- Title: vw_env_exportable Pages: 1 -->
<svg width="323pt" height="413pt"
 viewBox="0.00 0.00 323.26 413.20" xmlns="http://www.w3.org/2000/svg" xmlns:xlink="http://www.w3.org/1999/xlink">
<g id="graph0" class="graph" transform="scale(1 1) rotate(0) translate(4 409.2)">
<title>vw_env_exportable</title>
<polygon fill="white" stroke="none" points="-4,4 -4,-409.2 319.26,-409.2 319.26,4 -4,4"/>
<!-- vw_env_exportable -->
<g id="node1" class="node">
<title>vw_env_exportable</title>
<polygon fill="#efefef" stroke="none" points="46.2,-323.4 46.2,-359 269.06,-359 269.06,-323.4 46.2,-323.4"/>
<polygon fill="none" stroke="black" points="46.2,-323.4 46.2,-359 269.06,-359 269.06,-323.4 46.2,-323.4"/>
<text text-anchor="start" x="53.2" y="-336.8" font-family="Arial Bold" font-size="18.00">vw_env_exportable</text>
<text text-anchor="start" x="195.15" y="-336.8" font-family="Arial" font-size="14.00">    </text>
<text text-anchor="start" x="226.27" y="-336.8" font-family="Arial" font-size="14.00" fill="#666666">[view]</text>
<polygon fill="none" stroke="black" points="46.2,-292.6 46.2,-323.4 269.06,-323.4 269.06,-292.6 46.2,-292.6"/>
<text text-anchor="start" x="53.2" y="-304.8" font-family="Arial" font-size="14.00">env_id </text>
<text text-anchor="start" x="98.34" y="-304.8" font-family="Arial" font-size="14.00" fill="#666666">[INTEGER]</text>
<polygon fill="none" stroke="black" points="46.2,-261.8 46.2,-292.6 269.06,-292.6 269.06,-261.8 46.2,-261.8"/>
<text text-anchor="start" x="53.2" y="-274" font-family="Arial" font-size="14.00">env_name </text>
<text text-anchor="start" x="122.47" y="-274" font-family="Arial" font-size="14.00" fill="#666666">[TEXT]</text>
<polygon fill="none" stroke="black" points="46.2,-231 46.2,-261.8 269.06,-261.8 269.06,-231 46.2,-231"/>
<text text-anchor="start" x="53.2" y="-243.2" font-family="Arial" font-size="14.00">name </text>
<text text-anchor="start" x="92.11" y="-243.2" font-family="Arial" font-size="14.00" fill="#666666">[TEXT]</text>
<polygon fill="none" stroke="black" points="46.2,-200.2 46.2,-231 269.06,-231 269.06,-200.2 46.2,-200.2"/>
<text text-anchor="start" x="53.2" y="-212.4" font-family="Arial" font-size="14.00">type </text>
<text text-anchor="start" x="83.55" y="-212.4" font-family="Arial" font-size="14.00" fill="#666666">[]</text>
<polygon fill="none" stroke="black" points="46.2,-169.4 46.2,-200.2 269.06,-200.2 269.06,-169.4 46.2,-169.4"/>
<text text-anchor="start" x="53.2" y="-181.6" font-family="Arial" font-size="14.00">comment </text>
<text text-anchor="start" x="114.66" y="-181.6" font-family="Arial" font-size="14.00" fill="#666666">[TEXT]</text>
<polygon fill="none" stroke="black" points="46.2,-138.6 46.2,-169.4 269.06,-169.4 269.06,-138.6 46.2,-138.6"/>
<text text-anchor="start" x="53.2" y="-150.8" font-family="Arial" font-size="14.00">enabled </text>
<text text-anchor="start" x="106.92" y="-150.8" font-family="Arial" font-size="14.00" fill="#666666">[INTEGER]</text>
<polygon fill="none" stroke="black" points="46.2,-107.8 46.2,-138.6 269.06,-138.6 269.06,-107.8 46.2,-107.8"/>
<text text-anchor="start" x="53.2" y="-120" font-family="Arial" font-size="14.00">value </text>
<text text-anchor="start" x="90.56" y="-120" font-family="Arial" font-size="14.00" fill="#666666">[TEXT]</text>
<polygon fill="none" stroke="black" points="46.2,-77 46.2,-107.8 269.06,-107.8 269.06,-77 46.2,-77"/>
<text text-anchor="start" x="53.2" y="-89.2" font-family="Arial" font-size="14.00">create_time </text>
<text text-anchor="start" x="130.23" y="-89.2" font-family="Arial" font-size="14.00" fill="#666666">[TEXT]</text>
<polygon fill="none" stroke="black" points="46.2,-46.2 46.2,-77 269.06,-77 269.06,-46.2 46.2,-46.2"/>
<text text-anchor="start" x="53.2" y="-58.4" font-family="Arial" font-size="14.00">update_time </text>
<text text-anchor="start" x="134.14" y="-58.4" font-family="Arial" font-size="14.00" fill="#666666">[TEXT]</text>
<polygon fill="none" stroke="black" stroke-width="3" points="44.7,-44.7 44.7,-360.5 270.56,-360.5 270.56,-44.7 44.7,-44.7"/>
</g>
</g>
</svg>
