<?xml version="1.0" encoding="UTF-8" standalone="no"?>
<!DOCTYPE svg PUBLIC "-//W3C//DTD SVG 1.1//EN"
 "http://www.w3.org/Graphics/SVG/1.1/DTD/svg11.dtd">
<!-- Generated by graphviz version 12.1.2 (20240928.0832)
 -->
<!-- Title: vw_env_var_var_ref_unique_name Pages: 1 -->
<svg width="437pt" height="198pt"
 viewBox="0.00 0.00 437.21 197.60" xmlns="http://www.w3.org/2000/svg" xmlns:xlink="http://www.w3.org/1999/xlink">
<g id="graph0" class="graph" transform="scale(1 1) rotate(0) translate(4 193.6)">
<title>vw_env_var_var_ref_unique_name</title>
<polygon fill="white" stroke="none" points="-4,4 -4,-193.6 433.21,-193.6 433.21,4 -4,4"/>
<!-- vw_env_var_var_ref_unique_name -->
<g id="node1" class="node">
<title>vw_env_var_var_ref_unique_name</title>
<polygon fill="#efefef" stroke="none" points="46.2,-107.8 46.2,-143.4 383.01,-143.4 383.01,-107.8 46.2,-107.8"/>
<polygon fill="none" stroke="black" points="46.2,-107.8 46.2,-143.4 383.01,-143.4 383.01,-107.8 46.2,-107.8"/>
<text text-anchor="start" x="53.2" y="-121.2" font-family="Arial Bold" font-size="18.00">vw_env_var_var_ref_unique_name</text>
<text text-anchor="start" x="309.1" y="-121.2" font-family="Arial" font-size="14.00">    </text>
<text text-anchor="start" x="340.22" y="-121.2" font-family="Arial" font-size="14.00" fill="#666666">[view]</text>
<polygon fill="none" stroke="black" points="46.2,-77 46.2,-107.8 383.01,-107.8 383.01,-77 46.2,-77"/>
<text text-anchor="start" x="53.2" y="-89.2" font-family="Arial" font-size="14.00">env_id </text>
<text text-anchor="start" x="98.34" y="-89.2" font-family="Arial" font-size="14.00" fill="#666666">[INTEGER]</text>
<polygon fill="none" stroke="black" points="46.2,-46.2 46.2,-77 383.01,-77 383.01,-46.2 46.2,-46.2"/>
<text text-anchor="start" x="53.2" y="-58.4" font-family="Arial" font-size="14.00">name </text>
<text text-anchor="start" x="92.11" y="-58.4" font-family="Arial" font-size="14.00" fill="#666666">[TEXT]</text>
<polygon fill="none" stroke="black" stroke-width="3" points="44.7,-44.7 44.7,-144.9 384.51,-144.9 384.51,-44.7 44.7,-44.7"/>
</g>
</g>
</svg>
